<svg xmlns="http://www.w3.org/2000/svg" width="45" viewBox="0 0 45 45" height="45" version="1.0"><defs><clipPath id="a"><path d="M 13.5 18 L 20 18 L 20 28 L 13.5 28 Z M 13.5 18"/></clipPath><clipPath id="b"><path d="M 13.5 17 L 20 17 L 20 28 L 13.5 28 Z M 13.5 17"/></clipPath><clipPath id="c"><path d="M 25 18 L 31.5 18 L 31.5 28 L 25 28 Z M 25 18"/></clipPath><clipPath id="d"><path d="M 25 17 L 31.5 17 L 31.5 28 L 25 28 Z M 25 17"/></clipPath><clipPath id="e"><path d="M 19 15.511719 L 26 15.511719 L 26 29.761719 L 19 29.761719 Z M 19 15.511719"/></clipPath></defs><path fill="#FFF" d="M-4.5 -4.5H49.5V49.5H-4.5z"/><path fill="#FFF" d="M-4.5 -4.5H49.5V49.5H-4.5z"/><g clip-path="url(#a)"><path fill="#224C8D" d="M 19.179688 27.132812 C 19.082031 27.132812 18.984375 27.097656 18.90625 27.035156 L 13.871094 22.996094 C 13.765625 22.90625 13.703125 22.777344 13.703125 22.636719 C 13.703125 22.496094 13.765625 22.367188 13.871094 22.28125 L 18.90625 18.242188 C 18.984375 18.179688 19.082031 18.144531 19.179688 18.144531 C 19.316406 18.144531 19.445312 18.207031 19.53125 18.316406 C 19.605469 18.414062 19.636719 18.53125 19.621094 18.652344 C 19.609375 18.773438 19.550781 18.878906 19.457031 18.957031 L 14.871094 22.636719 L 19.457031 26.320312 C 19.550781 26.394531 19.609375 26.503906 19.621094 26.621094 C 19.636719 26.742188 19.605469 26.863281 19.53125 26.957031 C 19.445312 27.066406 19.316406 27.132812 19.179688 27.132812"/></g><g clip-path="url(#b)"><path fill="#224C8D" d="M 19.179688 17.949219 C 19.039062 17.949219 18.898438 18 18.789062 18.089844 L 13.753906 22.128906 C 13.601562 22.253906 13.511719 22.4375 13.511719 22.636719 C 13.511719 22.835938 13.601562 23.023438 13.753906 23.148438 L 18.789062 27.1875 C 18.898438 27.273438 19.039062 27.324219 19.179688 27.324219 C 19.375 27.324219 19.558594 27.234375 19.679688 27.078125 C 19.785156 26.941406 19.832031 26.773438 19.8125 26.601562 C 19.792969 26.429688 19.707031 26.273438 19.574219 26.167969 L 15.175781 22.636719 L 19.574219 19.109375 C 19.707031 19 19.792969 18.847656 19.8125 18.675781 C 19.832031 18.503906 19.785156 18.335938 19.679688 18.199219 C 19.558594 18.039062 19.375 17.949219 19.179688 17.949219 Z M 19.179688 18.339844 C 19.257812 18.339844 19.332031 18.371094 19.382812 18.4375 C 19.46875 18.550781 19.449219 18.714844 19.339844 18.804688 L 14.5625 22.636719 L 19.339844 26.472656 C 19.449219 26.558594 19.46875 26.722656 19.382812 26.835938 C 19.332031 26.902344 19.257812 26.9375 19.179688 26.9375 C 19.125 26.9375 19.070312 26.917969 19.023438 26.882812 L 13.988281 22.84375 C 13.929688 22.792969 13.890625 22.71875 13.890625 22.636719 C 13.890625 22.558594 13.929688 22.480469 13.988281 22.433594 L 19.023438 18.394531 C 19.070312 18.355469 19.125 18.339844 19.179688 18.339844"/></g><g clip-path="url(#c)"><path fill="#224C8D" d="M 25.820312 27.132812 C 25.683594 27.132812 25.554688 27.066406 25.46875 26.957031 C 25.316406 26.761719 25.351562 26.472656 25.542969 26.320312 L 30.132812 22.636719 L 25.542969 18.957031 C 25.351562 18.800781 25.316406 18.515625 25.46875 18.316406 C 25.554688 18.207031 25.683594 18.144531 25.820312 18.144531 C 25.917969 18.144531 26.015625 18.179688 26.09375 18.242188 L 31.128906 22.28125 C 31.234375 22.367188 31.296875 22.496094 31.296875 22.636719 C 31.296875 22.777344 31.234375 22.90625 31.128906 22.996094 L 26.09375 27.035156 C 26.015625 27.097656 25.917969 27.132812 25.820312 27.132812"/></g><g clip-path="url(#d)"><path fill="#224C8D" d="M 25.820312 17.949219 C 25.625 17.949219 25.441406 18.039062 25.320312 18.199219 C 25.101562 18.480469 25.152344 18.886719 25.425781 19.109375 L 29.824219 22.636719 L 25.425781 26.167969 C 25.152344 26.386719 25.101562 26.796875 25.320312 27.078125 C 25.441406 27.234375 25.625 27.324219 25.820312 27.324219 C 25.960938 27.324219 26.101562 27.273438 26.210938 27.1875 L 31.246094 23.148438 C 31.398438 23.023438 31.488281 22.835938 31.488281 22.636719 C 31.488281 22.4375 31.398438 22.253906 31.246094 22.128906 L 26.214844 18.089844 C 26.101562 18 25.960938 17.949219 25.820312 17.949219 Z M 25.820312 18.339844 C 25.875 18.339844 25.929688 18.355469 25.976562 18.394531 L 31.011719 22.433594 C 31.070312 22.480469 31.109375 22.558594 31.109375 22.636719 C 31.109375 22.71875 31.070312 22.792969 31.011719 22.84375 L 25.976562 26.882812 C 25.929688 26.917969 25.875 26.9375 25.820312 26.9375 C 25.742188 26.9375 25.667969 26.902344 25.617188 26.835938 C 25.53125 26.722656 25.550781 26.558594 25.660156 26.472656 L 30.4375 22.636719 L 25.660156 18.804688 C 25.550781 18.714844 25.53125 18.550781 25.617188 18.4375 C 25.667969 18.371094 25.746094 18.339844 25.820312 18.339844"/></g><g clip-path="url(#e)" fill="#224C8D"><path d="M 20 29.566406 C 19.945312 29.566406 19.890625 29.558594 19.839844 29.539062 C 19.726562 29.492188 19.640625 29.40625 19.589844 29.296875 C 19.542969 29.1875 19.539062 29.0625 19.582031 28.949219 L 24.5 15.996094 C 24.5625 15.824219 24.730469 15.707031 24.914062 15.707031 C 24.96875 15.707031 25.023438 15.71875 25.074219 15.738281 C 25.304688 15.828125 25.417969 16.09375 25.328125 16.328125 L 20.414062 29.277344 C 20.347656 29.453125 20.179688 29.566406 20 29.566406"/><path d="M 24.914062 15.511719 C 24.652344 15.511719 24.414062 15.679688 24.320312 15.929688 L 19.40625 28.878906 C 19.34375 29.039062 19.347656 29.214844 19.417969 29.375 C 19.488281 29.535156 19.613281 29.65625 19.769531 29.71875 C 19.84375 29.746094 19.921875 29.761719 20 29.761719 C 20.257812 29.761719 20.5 29.59375 20.59375 29.347656 L 25.507812 16.394531 C 25.632812 16.0625 25.46875 15.6875 25.144531 15.558594 C 25.070312 15.527344 24.992188 15.511719 24.914062 15.511719 Z M 24.914062 15.902344 C 24.945312 15.902344 24.976562 15.90625 25.007812 15.917969 C 25.136719 15.96875 25.203125 16.121094 25.152344 16.257812 L 20.238281 29.207031 C 20.199219 29.3125 20.101562 29.375 20 29.375 C 19.96875 29.375 19.9375 29.371094 19.90625 29.355469 C 19.773438 29.304688 19.710938 29.152344 19.761719 29.019531 L 24.675781 16.066406 C 24.714844 15.964844 24.8125 15.902344 24.914062 15.902344"/></g></svg>