<svg xmlns="http://www.w3.org/2000/svg" width="45" viewBox="0 0 45 45" height="45" version="1.0"><defs><clipPath id="a"><path d="M 13.5 15.023438 L 32.25 15.023438 L 32.25 30.773438 L 13.5 30.773438 Z M 13.5 15.023438"/></clipPath></defs><path fill="#FFF" d="M-4.5 -4.5H49.5V49.5H-4.5z"/><path fill="#FFF" d="M-4.5 -4.5H49.5V49.5H-4.5z"/><g clip-path="url(#a)"><path fill="#205072" d="M 25.492188 23.597656 L 25.492188 24.335938 C 25.492188 24.964844 24.984375 25.472656 24.367188 25.472656 L 21.382812 25.472656 C 20.765625 25.472656 20.257812 24.964844 20.257812 24.335938 L 20.257812 23.597656 C 20.257812 23.433594 20.296875 23.273438 20.359375 23.128906 L 13.5 23.128906 L 13.5 29.960938 C 13.5 30.402344 13.859375 30.761719 14.292969 30.761719 L 31.457031 30.761719 C 31.894531 30.761719 32.25 30.398438 32.25 29.960938 L 32.25 23.128906 L 25.390625 23.128906 C 25.453125 23.273438 25.492188 23.433594 25.492188 23.597656 Z M 24.367188 24.804688 C 24.621094 24.804688 24.832031 24.59375 24.832031 24.335938 L 24.832031 23.597656 C 24.832031 23.339844 24.621094 23.128906 24.367188 23.128906 L 21.382812 23.128906 C 21.128906 23.128906 20.917969 23.339844 20.917969 23.597656 L 20.917969 24.335938 C 20.917969 24.59375 21.128906 24.804688 21.382812 24.804688 Z M 31.457031 17.972656 L 27.117188 17.972656 L 27.117188 15.828125 C 27.117188 15.386719 26.757812 15.027344 26.324219 15.027344 L 19.429688 15.027344 C 18.992188 15.027344 18.636719 15.390625 18.636719 15.828125 L 18.636719 17.972656 L 14.292969 17.972656 C 13.859375 17.972656 13.5 18.332031 13.5 18.777344 L 13.5 22.460938 L 32.25 22.460938 L 32.25 18.777344 C 32.25 18.332031 31.894531 17.972656 31.457031 17.972656 Z M 25.722656 17.972656 L 20.027344 17.972656 L 20.027344 16.835938 C 20.027344 16.617188 20.203125 16.4375 20.421875 16.4375 L 25.324219 16.4375 C 25.542969 16.4375 25.71875 16.617188 25.71875 16.835938 L 25.71875 17.972656 Z M 25.722656 17.972656"/></g></svg>