<svg xmlns="http://www.w3.org/2000/svg" width="30" viewBox="0 0 30 30" height="30" version="1.0"><defs><clipPath id="a"><path d="M 0.484375 0 L 29.515625 0 L 29.515625 29.03125 L 0.484375 29.03125 Z M 0.484375 0"/></clipPath><clipPath id="b"><path d="M 7.089844 8.746094 L 20.878906 8.746094 L 20.878906 22.535156 L 7.089844 22.535156 Z M 7.089844 8.746094"/></clipPath><clipPath id="c"><path d="M 8.140625 7.699219 L 21.933594 7.699219 L 21.933594 21.492188 L 8.140625 21.492188 Z M 8.140625 7.699219"/></clipPath></defs><g clip-path="url(#a)" fill="#FFF"><path d="M 0.484375 0 L 29.515625 0 L 29.515625 137.902344 L 0.484375 137.902344 Z M 0.484375 0"/><path d="M 0.484375 0 L 29.515625 0 L 29.515625 29.03125 L 0.484375 29.03125 Z M 0.484375 0"/></g><g clip-path="url(#b)"><path fill="#FFF" d="M 20.875 15.683594 C 20.875 11.851562 17.789062 8.746094 13.984375 8.746094 C 10.179688 8.746094 7.09375 11.851562 7.09375 15.683594 C 7.09375 19.144531 9.613281 22.015625 12.90625 22.535156 L 12.90625 17.6875 L 11.15625 17.6875 L 11.15625 15.683594 L 12.90625 15.683594 L 12.90625 14.15625 C 12.90625 12.417969 13.9375 11.457031 15.511719 11.457031 C 16.265625 11.457031 17.054688 11.589844 17.054688 11.589844 L 17.054688 13.296875 L 16.183594 13.296875 C 15.328125 13.296875 15.0625 13.832031 15.0625 14.382812 L 15.0625 15.683594 L 16.972656 15.683594 L 16.667969 17.6875 L 15.0625 17.6875 L 15.0625 22.535156 C 18.355469 22.015625 20.875 19.144531 20.875 15.683594"/></g><g clip-path="url(#c)"><path d="M 21.929688 14.636719 C 21.929688 10.804688 18.84375 7.699219 15.035156 7.699219 C 11.230469 7.699219 8.144531 10.804688 8.144531 14.636719 C 8.144531 18.101562 10.664062 20.96875 13.960938 21.492188 L 13.960938 16.644531 L 12.210938 16.644531 L 12.210938 14.636719 L 13.960938 14.636719 L 13.960938 13.109375 C 13.960938 11.371094 14.988281 10.410156 16.5625 10.410156 C 17.316406 10.410156 18.105469 10.546875 18.105469 10.546875 L 18.105469 12.253906 L 17.234375 12.253906 C 16.378906 12.253906 16.113281 12.789062 16.113281 13.335938 L 16.113281 14.636719 L 18.023438 14.636719 L 17.71875 16.644531 L 16.113281 16.644531 L 16.113281 21.492188 C 19.40625 20.96875 21.929688 18.101562 21.929688 14.636719"/></g></svg>