<svg xmlns="http://www.w3.org/2000/svg" width="30" viewBox="0 0 30 30" height="30" version="1.0"><defs><clipPath id="a"><path d="M 0.484375 0 L 29.515625 0 L 29.515625 29.03125 L 0.484375 29.03125 Z M 0.484375 0"/></clipPath><clipPath id="b"><path d="M 9.195312 8.710938 L 20.804688 8.710938 L 20.804688 20.324219 L 9.195312 20.324219 Z M 9.195312 8.710938"/></clipPath></defs><g clip-path="url(#a)"><path fill="#FFF" d="M 0.484375 0 L 29.515625 0 L 29.515625 29.03125 L 0.484375 29.03125 Z M 0.484375 0"/></g><g clip-path="url(#b)"><path d="M 15 8.84375 C 11.792969 8.84375 9.195312 11.441406 9.195312 14.640625 C 9.195312 17.199219 10.859375 19.375 13.164062 20.140625 C 13.453125 20.195312 13.660156 19.898438 13.660156 19.675781 C 13.660156 19.539062 13.664062 19.375 13.660156 18.894531 C 12.042969 19.242188 11.539062 18.113281 11.539062 18.113281 C 11.273438 17.441406 10.953125 17.25 10.953125 17.25 C 10.425781 16.890625 10.992188 16.902344 10.992188 16.902344 C 11.574219 16.9375 11.875 17.441406 11.875 17.441406 C 12.320312 18.222656 13.328125 18.148438 13.660156 18 C 13.660156 17.644531 13.699219 17.386719 13.796875 17.222656 C 11.972656 16.902344 10.976562 15.847656 10.980469 14.386719 C 10.984375 13.527344 11.28125 12.855469 11.761719 12.359375 C 11.550781 12.097656 11.410156 11.1875 11.839844 10.628906 C 12.917969 10.628906 13.558594 11.410156 13.558594 11.410156 C 13.558594 11.410156 14.066406 11.1875 14.996094 11.1875 C 15.933594 11.1875 16.433594 11.398438 16.433594 11.398438 C 16.433594 11.398438 17.078125 10.628906 18.15625 10.628906 C 18.585938 11.1875 18.445312 12.097656 18.277344 12.34375 C 18.738281 12.828125 19.019531 13.5 19.019531 14.386719 C 19.019531 15.847656 18.027344 16.902344 16.207031 17.21875 C 16.324219 17.394531 16.339844 17.636719 16.339844 18 C 16.339844 18.773438 16.339844 19.484375 16.339844 19.675781 C 16.339844 19.898438 16.542969 20.199219 16.839844 20.140625 C 19.144531 19.371094 20.804688 17.199219 20.804688 14.640625 C 20.804688 11.441406 18.207031 8.84375 15 8.84375 Z M 15 8.84375"/></g></svg>