<svg xmlns="http://www.w3.org/2000/svg" width="30" viewBox="0 0 30 30" height="30" version="1.0"><defs><clipPath id="a"><path d="M 0.484375 0 L 29.515625 0 L 29.515625 29.03125 L 0.484375 29.03125 Z M 0.484375 0"/></clipPath><clipPath id="b"><path d="M 9.195312 8.710938 L 20.804688 8.710938 L 20.804688 20.324219 L 9.195312 20.324219 Z M 9.195312 8.710938"/></clipPath></defs><g clip-path="url(#a)"><path fill="#FFF" d="M 0.484375 0 L 29.515625 0 L 29.515625 29.03125 L 0.484375 29.03125 Z M 0.484375 0"/></g><g clip-path="url(#b)"><path d="M 15 8.710938 C 11.792969 8.710938 9.195312 11.308594 9.195312 14.515625 C 9.195312 17.722656 11.792969 20.324219 15 20.324219 C 18.207031 20.324219 20.804688 17.722656 20.804688 14.515625 C 20.804688 11.308594 18.207031 8.710938 15 8.710938 Z M 12.820312 11.324219 C 13.226562 11.324219 13.5 11.59375 13.5 11.957031 C 13.5 12.320312 13.226562 12.589844 12.777344 12.589844 C 12.367188 12.589844 12.097656 12.320312 12.097656 11.957031 C 12.097656 11.59375 12.367188 11.324219 12.820312 11.324219 Z M 13.546875 16.933594 L 12.097656 16.933594 L 12.097656 13.066406 L 13.546875 13.066406 Z M 18.386719 16.933594 L 17.019531 16.933594 L 17.019531 14.820312 C 17.019531 14.234375 16.65625 14.101562 16.519531 14.101562 C 16.382812 14.101562 15.925781 14.191406 15.925781 14.820312 C 15.925781 14.910156 15.925781 16.933594 15.925781 16.933594 L 14.515625 16.933594 L 14.515625 13.066406 L 15.929688 13.066406 L 15.929688 13.605469 C 16.109375 13.289062 16.472656 13.066406 17.15625 13.066406 C 17.839844 13.066406 18.386719 13.605469 18.386719 14.820312 Z M 18.386719 16.933594"/></g></svg>