<svg xmlns="http://www.w3.org/2000/svg" width="45" viewBox="0 0 45 45" height="45" version="1.0"><defs><clipPath id="a"><path d="M 13.5 13.5 L 31.5 13.5 L 31.5 31.5 L 13.5 31.5 Z M 13.5 13.5"/></clipPath></defs><path fill="#FFF" d="M-4.5 -4.5H49.5V49.5H-4.5z"/><path fill="#205072" d="M 26.566406 28.597656 C 26.882812 28.597656 27.144531 28.859375 27.144531 29.175781 C 27.144531 29.496094 26.882812 29.757812 26.566406 29.757812 C 26.246094 29.757812 25.984375 29.496094 25.984375 29.175781 C 25.984375 28.859375 26.246094 28.597656 26.566406 28.597656 Z M 26.566406 30.339844 C 27.207031 30.339844 27.726562 29.816406 27.726562 29.175781 C 27.726562 28.535156 27.207031 28.015625 26.566406 28.015625 C 25.921875 28.015625 25.402344 28.535156 25.402344 29.175781 C 25.402344 29.816406 25.921875 30.339844 26.566406 30.339844"/><path fill="#205072" d="M 20.46875 29.757812 C 20.148438 29.757812 19.886719 29.496094 19.886719 29.175781 C 19.886719 28.859375 20.148438 28.597656 20.46875 28.597656 C 20.789062 28.597656 21.046875 28.859375 21.046875 29.175781 C 21.046875 29.496094 20.789062 29.757812 20.46875 29.757812 Z M 20.46875 28.015625 C 19.828125 28.015625 19.304688 28.535156 19.304688 29.175781 C 19.304688 29.816406 19.828125 30.339844 20.46875 30.339844 C 21.109375 30.339844 21.628906 29.816406 21.628906 29.175781 C 21.628906 28.535156 21.109375 28.015625 20.46875 28.015625"/><g clip-path="url(#a)"><path fill="#205072" d="M 26.566406 27.433594 C 27.523438 27.433594 28.304688 28.21875 28.304688 29.175781 C 28.304688 30.136719 27.523438 30.917969 26.566406 30.917969 L 26.519531 30.917969 C 25.675781 30.917969 24.957031 30.316406 24.804688 29.484375 L 24.003906 25.359375 C 24.277344 25.289062 24.519531 25.148438 24.710938 24.949219 L 24.910156 26.054688 C 25.054688 26.855469 25.75 27.433594 26.566406 27.433594 Z M 22.226562 29.488281 C 22.078125 30.316406 21.355469 30.917969 20.511719 30.917969 L 20.46875 30.917969 C 19.507812 30.917969 18.726562 30.136719 18.726562 29.175781 C 18.726562 28.21875 19.507812 27.433594 20.46875 27.433594 C 21.28125 27.433594 21.976562 26.855469 22.121094 26.054688 L 22.382812 24.625 C 22.53125 24.902344 22.761719 25.125 23.046875 25.261719 Z M 14.082031 22.210938 L 14.660156 22.210938 L 14.660156 22.789062 L 14.082031 22.789062 Z M 14.660156 15.242188 L 14.660156 15.824219 L 14.082031 15.824219 L 14.082031 15.242188 Z M 21.339844 14.371094 C 21.339844 14.359375 21.339844 14.347656 21.339844 14.339844 C 21.339844 14.195312 21.453125 14.082031 21.597656 14.082031 L 21.671875 14.082031 L 21.765625 14.660156 L 21.375 14.660156 Z M 24.53125 15.566406 L 24.53125 15.242188 L 24.585938 15.242188 Z M 25.359375 14.082031 L 25.4375 14.082031 C 25.578125 14.082031 25.695312 14.195312 25.695312 14.339844 C 25.695312 14.347656 25.691406 14.359375 25.691406 14.367188 L 24.65625 22.902344 C 24.472656 22.726562 24.25 22.601562 23.996094 22.542969 Z M 26.273438 15.242188 L 26.273438 15.824219 L 26.101562 15.824219 L 26.171875 15.242188 Z M 30.917969 15.824219 L 30.339844 15.824219 L 30.339844 15.242188 L 30.917969 15.242188 Z M 30.339844 22.789062 L 30.339844 22.210938 L 30.917969 22.210938 L 30.917969 22.789062 Z M 25.324219 22.210938 L 26.273438 22.210938 L 26.273438 22.789062 L 25.253906 22.789062 Z M 29.175781 22.210938 L 29.757812 22.210938 L 29.757812 22.789062 L 29.175781 22.789062 Z M 28.015625 22.210938 L 28.597656 22.210938 L 28.597656 22.789062 L 28.015625 22.789062 Z M 27.433594 22.210938 L 27.433594 22.789062 L 26.855469 22.789062 L 26.855469 22.210938 Z M 27.433594 15.824219 L 26.855469 15.824219 L 26.855469 15.242188 L 27.433594 15.242188 Z M 28.597656 15.824219 L 28.015625 15.824219 L 28.015625 15.242188 L 28.597656 15.242188 Z M 29.175781 15.824219 L 29.175781 15.242188 L 29.757812 15.242188 L 29.757812 15.824219 Z M 26.027344 16.402344 L 28.015625 16.402344 L 28.015625 20.175781 L 28.597656 20.175781 L 28.597656 16.402344 L 30.917969 16.402344 L 30.917969 21.628906 L 28.597656 21.628906 L 28.597656 20.757812 L 28.015625 20.757812 L 28.015625 21.628906 L 25.394531 21.628906 Z M 22.210938 22.210938 L 23.460938 22.210938 L 23.410156 22.523438 C 23.179688 22.566406 22.96875 22.664062 22.789062 22.796875 L 22.789062 22.789062 L 22.210938 22.789062 Z M 21.046875 22.210938 L 21.628906 22.210938 L 21.628906 22.789062 L 21.046875 22.789062 Z M 19.886719 22.210938 L 20.46875 22.210938 L 20.46875 22.789062 L 19.886719 22.789062 Z M 18.726562 22.210938 L 19.304688 22.210938 L 19.304688 22.789062 L 18.726562 22.789062 Z M 17.566406 22.210938 L 18.144531 22.210938 L 18.144531 22.789062 L 17.566406 22.789062 Z M 16.402344 22.210938 L 16.984375 22.210938 L 16.984375 22.789062 L 16.402344 22.789062 Z M 15.824219 22.210938 L 15.824219 22.789062 L 15.242188 22.789062 L 15.242188 22.210938 Z M 16.402344 16.402344 L 16.402344 17.566406 L 16.984375 17.566406 L 16.984375 16.402344 L 19.597656 16.402344 L 19.597656 21.628906 L 16.984375 21.628906 L 16.984375 18.144531 L 16.402344 18.144531 L 16.402344 21.628906 L 14.082031 21.628906 L 14.082031 16.402344 Z M 15.824219 15.824219 L 15.242188 15.824219 L 15.242188 15.242188 L 15.824219 15.242188 Z M 16.984375 15.824219 L 16.402344 15.824219 L 16.402344 15.242188 L 16.984375 15.242188 Z M 18.144531 15.824219 L 17.566406 15.824219 L 17.566406 15.242188 L 18.144531 15.242188 Z M 19.304688 15.824219 L 18.726562 15.824219 L 18.726562 15.242188 L 19.304688 15.242188 Z M 20.46875 15.824219 L 19.886719 15.824219 L 19.886719 15.242188 L 20.46875 15.242188 Z M 22.789062 15.824219 L 22.210938 15.824219 L 22.210938 15.242188 L 22.789062 15.242188 Z M 23.371094 15.824219 L 23.371094 15.242188 L 23.953125 15.242188 L 23.953125 15.824219 Z M 23.554688 21.628906 L 20.175781 21.628906 L 20.175781 16.402344 L 24.398438 16.402344 Z M 21.628906 15.242188 L 21.628906 15.824219 L 21.046875 15.824219 L 21.046875 15.242188 Z M 23.660156 24.824219 C 23.179688 24.824219 22.789062 24.433594 22.789062 23.953125 C 22.789062 23.472656 23.179688 23.082031 23.660156 23.082031 C 24.140625 23.082031 24.527344 23.464844 24.53125 23.941406 L 24.527344 23.960938 L 24.53125 23.96875 C 24.523438 24.441406 24.136719 24.824219 23.660156 24.824219 Z M 31.5 23.371094 L 31.5 14.660156 L 26.242188 14.660156 L 26.269531 14.4375 C 26.273438 14.402344 26.273438 14.371094 26.273438 14.339844 C 26.273438 13.875 25.898438 13.5 25.4375 13.5 L 24.867188 13.5 L 24.679688 14.660156 L 22.355469 14.660156 L 22.167969 13.5 L 21.597656 13.5 C 21.132812 13.5 20.757812 13.875 20.757812 14.339844 C 20.757812 14.371094 20.761719 14.402344 20.765625 14.4375 L 20.789062 14.660156 L 13.5 14.660156 L 13.5 23.371094 L 21.847656 23.371094 L 21.914062 23.941406 L 21.550781 25.949219 C 21.457031 26.476562 21 26.855469 20.46875 26.855469 C 19.1875 26.855469 18.144531 27.898438 18.144531 29.175781 C 18.144531 30.457031 19.1875 31.5 20.46875 31.5 L 20.511719 31.5 C 21.636719 31.5 22.597656 30.699219 22.796875 29.597656 L 23.515625 25.890625 L 24.234375 29.59375 C 24.433594 30.699219 25.394531 31.5 26.519531 31.5 L 26.566406 31.5 C 27.84375 31.5 28.886719 30.457031 28.886719 29.175781 C 28.886719 27.898438 27.84375 26.855469 26.566406 26.855469 C 26.03125 26.855469 25.578125 26.476562 25.480469 25.949219 L 25.117188 23.941406 L 25.183594 23.371094 L 31.5 23.371094"/></g><path fill="#205072" d="M 21.628906 18.398438 L 22.558594 19.015625 L 21.628906 19.636719 Z M 21.046875 17.3125 L 21.046875 20.71875 L 23.601562 19.015625 L 21.046875 17.3125"/></svg>