<svg xmlns="http://www.w3.org/2000/svg" width="45" viewBox="0 0 45 45" height="45" version="1.0"><defs><clipPath id="a"><path d="M 13.5 13.5 L 31.5 13.5 L 31.5 31.5 L 13.5 31.5 Z M 13.5 13.5"/></clipPath></defs><path fill="#FFF" d="M-4.5 -4.5H49.5V49.5H-4.5z"/><path fill="#FFF" d="M-4.5 -4.5H49.5V49.5H-4.5z"/><g clip-path="url(#a)"><path fill="#205072" d="M 30.71875 16.628906 L 26.414062 16.628906 L 26.414062 16.523438 C 26.414062 16.125 26.335938 15.738281 26.183594 15.367188 C 26.027344 14.996094 25.808594 14.671875 25.527344 14.386719 C 25.242188 14.105469 24.914062 13.886719 24.546875 13.730469 C 24.175781 13.578125 23.789062 13.5 23.386719 13.5 L 21.613281 13.5 C 21.210938 13.5 20.824219 13.578125 20.453125 13.730469 C 20.085938 13.886719 19.757812 14.105469 19.472656 14.386719 C 19.191406 14.671875 18.972656 14.996094 18.816406 15.367188 C 18.664062 15.738281 18.585938 16.125 18.585938 16.523438 L 18.585938 16.628906 L 14.28125 16.628906 C 14.066406 16.628906 13.882812 16.707031 13.730469 16.859375 C 13.578125 17.011719 13.5 17.195312 13.5 17.414062 L 13.5 30.71875 C 13.5 30.933594 13.578125 31.117188 13.730469 31.269531 C 13.882812 31.421875 14.066406 31.5 14.28125 31.5 L 30.71875 31.5 C 30.933594 31.5 31.117188 31.421875 31.269531 31.269531 C 31.421875 31.117188 31.5 30.933594 31.5 30.71875 L 31.5 17.414062 C 31.5 17.195312 31.421875 17.011719 31.269531 16.859375 C 31.117188 16.707031 30.933594 16.628906 30.71875 16.628906 Z M 20.152344 16.523438 C 20.152344 16.332031 20.191406 16.144531 20.265625 15.96875 C 20.339844 15.789062 20.445312 15.628906 20.582031 15.492188 C 20.71875 15.355469 20.875 15.25 21.054688 15.175781 C 21.230469 15.101562 21.417969 15.066406 21.613281 15.066406 L 23.382812 15.066406 C 23.578125 15.066406 23.765625 15.101562 23.945312 15.175781 C 24.121094 15.25 24.28125 15.355469 24.417969 15.492188 C 24.554688 15.628906 24.660156 15.785156 24.734375 15.964844 C 24.808594 16.144531 24.847656 16.332031 24.847656 16.523438 L 24.847656 16.628906 L 20.152344 16.628906 Z M 19.371094 18.195312 L 29.933594 18.195312 L 29.933594 22.5 L 24.457031 22.5 L 24.457031 21.71875 C 24.457031 21.5 24.378906 21.316406 24.226562 21.164062 C 24.074219 21.011719 23.890625 20.933594 23.675781 20.933594 L 21.324219 20.933594 C 21.109375 20.933594 20.925781 21.011719 20.773438 21.164062 C 20.621094 21.316406 20.542969 21.5 20.542969 21.71875 L 20.542969 22.5 L 15.066406 22.5 L 15.066406 18.195312 Z M 22.890625 22.5 L 22.890625 24.066406 L 22.109375 24.066406 L 22.109375 22.5 Z M 15.066406 29.933594 L 15.066406 24.066406 L 20.542969 24.066406 L 20.542969 24.847656 C 20.542969 25.0625 20.621094 25.25 20.773438 25.402344 C 20.925781 25.554688 21.109375 25.628906 21.324219 25.628906 L 23.675781 25.628906 C 23.890625 25.628906 24.074219 25.554688 24.226562 25.402344 C 24.378906 25.25 24.457031 25.0625 24.457031 24.847656 L 24.457031 24.066406 L 29.933594 24.066406 L 29.933594 29.933594 Z M 15.066406 29.933594"/></g></svg>