<svg xmlns="http://www.w3.org/2000/svg" width="45" viewBox="0 0 45 45" height="45" version="1.0"><defs><clipPath id="a"><path d="M 13.5 15.742188 L 31.5 15.742188 L 31.5 29.242188 L 13.5 29.242188 Z M 13.5 15.742188"/></clipPath><clipPath id="b"><path d="M 13.5 15.742188 L 23 15.742188 L 23 26 L 13.5 26 Z M 13.5 15.742188"/></clipPath><clipPath id="c"><path d="M 22 15.742188 L 31.5 15.742188 L 31.5 26 L 22 26 Z M 22 15.742188"/></clipPath></defs><path fill="#FFF" d="M-4.5 -4.5H49.5V49.5H-4.5z"/><path fill="#FFF" d="M-4.5 -4.5H49.5V49.5H-4.5z"/><g clip-path="url(#a)"><path fill="#205072" d="M 13.898438 15.773438 L 31.101562 15.773438 C 31.300781 15.773438 31.460938 15.933594 31.460938 16.128906 L 31.460938 28.886719 C 31.460938 29.078125 31.300781 29.242188 31.101562 29.242188 L 13.898438 29.242188 C 13.699219 29.242188 13.539062 29.078125 13.539062 28.886719 L 13.539062 16.128906 C 13.539062 15.933594 13.699219 15.773438 13.898438 15.773438 Z M 30.742188 16.488281 L 14.257812 16.488281 L 14.257812 28.527344 L 30.742188 28.527344 Z M 30.742188 16.488281"/></g><g clip-path="url(#b)"><path fill="#205072" d="M 13.644531 16.382812 C 13.503906 16.242188 13.503906 16.019531 13.644531 15.878906 C 13.785156 15.742188 14.007812 15.742188 14.152344 15.875 L 22.753906 24.46875 C 22.894531 24.609375 22.894531 24.832031 22.753906 24.972656 C 22.613281 25.113281 22.390625 25.113281 22.246094 24.976562 Z M 13.644531 16.382812"/></g><g clip-path="url(#c)"><path fill="#205072" d="M 30.847656 15.875 C 30.992188 15.742188 31.214844 15.742188 31.355469 15.878906 C 31.496094 16.019531 31.496094 16.242188 31.355469 16.382812 L 22.753906 24.976562 C 22.613281 25.113281 22.386719 25.113281 22.246094 24.972656 C 22.105469 24.832031 22.105469 24.609375 22.25 24.46875 Z M 30.847656 15.875"/></g></svg>