<svg xmlns="http://www.w3.org/2000/svg" width="30" viewBox="0 0 30 30" height="30" version="1.0"><defs><clipPath id="a"><path d="M 0.484375 0 L 29.515625 0 L 29.515625 29.03125 L 0.484375 29.03125 Z M 0.484375 0"/></clipPath><clipPath id="b"><path d="M 9.195312 8.710938 L 20.804688 8.710938 L 20.804688 20.324219 L 9.195312 20.324219 Z M 9.195312 8.710938"/></clipPath></defs><g clip-path="url(#a)"><path fill="#FFF" d="M 0.484375 0 L 29.515625 0 L 29.515625 29.03125 L 0.484375 29.03125 Z M 0.484375 0"/></g><g clip-path="url(#b)"><path d="M 12.5625 8.710938 C 10.707031 8.710938 9.195312 10.222656 9.195312 12.082031 L 9.195312 16.953125 C 9.195312 18.808594 10.707031 20.324219 12.5625 20.324219 L 17.4375 20.324219 C 19.292969 20.324219 20.804688 18.808594 20.804688 16.953125 L 20.804688 12.082031 C 20.804688 10.222656 19.292969 8.710938 17.4375 8.710938 Z M 12.5625 9.601562 L 17.4375 9.601562 C 18.808594 9.601562 19.914062 10.707031 19.914062 12.082031 L 19.914062 16.953125 C 19.914062 18.324219 18.808594 19.429688 17.4375 19.429688 L 12.5625 19.429688 C 11.191406 19.429688 10.085938 18.328125 10.085938 16.953125 L 10.085938 12.082031 C 10.085938 10.707031 11.191406 9.601562 12.5625 9.601562 Z M 18.351562 10.496094 C 17.980469 10.496094 17.679688 10.796875 17.679688 11.167969 C 17.679688 11.535156 17.980469 11.835938 18.351562 11.835938 C 18.71875 11.835938 19.019531 11.535156 19.019531 11.167969 C 19.019531 10.796875 18.71875 10.496094 18.351562 10.496094 Z M 15 11.390625 C 13.277344 11.390625 11.875 12.792969 11.875 14.515625 C 11.875 16.238281 13.277344 17.644531 15 17.644531 C 16.722656 17.644531 18.125 16.238281 18.125 14.515625 C 18.125 12.792969 16.722656 11.390625 15 11.390625 Z M 15 12.28125 C 16.238281 12.28125 17.234375 13.277344 17.234375 14.515625 C 17.234375 15.753906 16.238281 16.75 15 16.75 C 13.761719 16.75 12.765625 15.753906 12.765625 14.515625 C 12.765625 13.277344 13.761719 12.28125 15 12.28125 Z M 15 12.28125"/></g></svg>