<svg xmlns="http://www.w3.org/2000/svg" width="45" viewBox="0 0 45 45" height="45" version="1.0"><defs><clipPath id="a"><path d="M 21 30 L 24 30 L 24 31.5 L 21 31.5 Z M 21 30"/></clipPath><clipPath id="b"><path d="M 17.011719 17 L 23 17 L 23 28 L 17.011719 28 Z M 17.011719 17"/></clipPath><clipPath id="c"><path d="M 22 13.5 L 28.261719 13.5 L 28.261719 21 L 22 21 Z M 22 13.5"/></clipPath><clipPath id="d"><path d="M 17.011719 13.5 L 23 13.5 L 23 19 L 17.011719 19 Z M 17.011719 13.5"/></clipPath><clipPath id="e"><path d="M 21 19 L 28.261719 19 L 28.261719 28 L 21 28 Z M 21 19"/></clipPath></defs><path fill="#FFF" d="M-4.5 -4.5H49.5V49.5H-4.5z"/><path fill="#FFF" d="M-4.5 -4.5H49.5V49.5H-4.5z"/><g clip-path="url(#a)"><path fill="#205072" d="M 23.960938 30.65625 L 21.308594 30.65625 C 21.308594 30.65625 21.453125 31.429688 22.546875 31.5 C 22.578125 31.5 22.605469 31.5 22.621094 31.5 C 22.648438 31.5 22.679688 31.5 22.691406 31.5 C 23.816406 31.429688 23.960938 30.65625 23.960938 30.65625 Z M 23.960938 30.65625"/></g><path fill="#205072" d="M 24.652344 28.828125 L 20.617188 28.828125 C 20.457031 28.828125 20.328125 28.703125 20.328125 28.546875 C 20.328125 28.390625 20.457031 28.265625 20.617188 28.265625 L 24.652344 28.265625 C 24.8125 28.265625 24.941406 28.390625 24.941406 28.546875 C 24.941406 28.703125 24.828125 28.828125 24.652344 28.828125 Z M 24.652344 28.828125"/><path fill="#205072" d="M 24.351562 29.953125 L 20.917969 29.953125 C 20.761719 29.953125 20.628906 29.828125 20.628906 29.671875 C 20.628906 29.515625 20.761719 29.390625 20.917969 29.390625 L 24.351562 29.390625 C 24.511719 29.390625 24.640625 29.515625 24.640625 29.671875 C 24.640625 29.828125 24.511719 29.953125 24.351562 29.953125 Z M 24.351562 29.953125"/><g clip-path="url(#b)"><path fill="#205072" d="M 22.449219 22.21875 C 22.359375 22.175781 22.117188 22.261719 21.984375 22.332031 L 21.972656 22.34375 C 21.582031 22.515625 21.277344 22.515625 21.0625 22.375 C 20.773438 22.191406 20.761719 21.8125 20.761719 21.796875 C 20.761719 21.472656 20.859375 21.234375 21.0625 21.109375 C 21.421875 20.882812 21.941406 21.09375 21.972656 21.109375 C 22.117188 21.179688 22.230469 21.191406 22.316406 21.148438 C 22.433594 21.109375 22.476562 20.96875 22.492188 20.925781 L 22.492188 19.265625 L 20.011719 19.265625 L 19.980469 19.25 C 19.777344 19.179688 19.691406 19.070312 19.664062 18.96875 C 19.578125 18.746094 19.734375 18.492188 19.765625 18.476562 C 19.921875 18.210938 19.953125 18 19.878906 17.84375 C 19.777344 17.648438 19.519531 17.59375 19.449219 17.578125 C 19.246094 17.605469 19.117188 17.691406 19.058594 17.804688 C 18.914062 18.054688 19.074219 18.492188 19.144531 18.632812 L 19.160156 18.648438 C 19.230469 18.84375 19.214844 19.011719 19.144531 19.125 C 19.042969 19.25 18.898438 19.265625 18.886719 19.265625 L 17.011719 19.265625 C 17.023438 19.855469 17.253906 21.261719 18.742188 23.484375 C 18.742188 23.484375 19.519531 24.777344 19.519531 25.988281 C 19.519531 25.988281 19.679688 27.5625 20.761719 27.5625 L 22.492188 27.5625 L 22.492188 22.359375 C 22.492188 22.316406 22.492188 22.234375 22.449219 22.21875 Z M 22.449219 22.21875"/></g><g clip-path="url(#c)"><path fill="#205072" d="M 22.792969 15.496094 C 22.808594 15.496094 22.851562 15.523438 23.011719 15.484375 C 23.097656 15.441406 23.6875 15.1875 24.105469 15.398438 C 24.324219 15.511719 24.453125 15.722656 24.496094 16.015625 L 24.496094 16.046875 C 24.496094 16.058594 24.421875 16.523438 24.046875 16.691406 C 23.804688 16.820312 23.484375 16.761719 23.125 16.566406 C 23.082031 16.539062 22.9375 16.46875 22.851562 16.496094 C 22.835938 16.496094 22.792969 16.507812 22.75 16.609375 L 22.777344 18.984375 L 24.554688 18.984375 C 24.566406 18.984375 24.871094 19.070312 24.984375 19.320312 C 25.058594 19.492188 25.042969 19.671875 24.941406 19.898438 C 24.898438 19.996094 24.796875 20.320312 24.929688 20.515625 C 25 20.628906 25.160156 20.6875 25.390625 20.6875 C 25.390625 20.6875 25.636719 20.6875 25.75 20.515625 C 25.835938 20.390625 25.824219 20.179688 25.691406 19.898438 C 25.636719 19.800781 25.433594 19.421875 25.578125 19.179688 C 25.621094 19.097656 25.734375 19 25.964844 19 L 28.261719 19 C 28.261719 18.96875 28.261719 18.957031 28.261719 18.957031 C 27.957031 14.035156 23.628906 13.542969 22.777344 13.5 L 22.777344 15.46875 C 22.777344 15.46875 22.777344 15.484375 22.792969 15.496094 Z M 22.792969 15.496094"/></g><g clip-path="url(#d)"><path fill="#205072" d="M 17.585938 18.957031 L 17.011719 18.957031 C 17.285156 14.1875 21.4375 13.570312 22.390625 13.515625 L 22.390625 14.078125 C 21.324219 14.160156 17.832031 14.765625 17.585938 18.957031 Z M 17.585938 18.957031"/></g><g clip-path="url(#e)"><path fill="#205072" d="M 25.808594 19.308594 C 25.765625 19.390625 25.851562 19.617188 25.921875 19.757812 L 25.9375 19.773438 C 26.109375 20.152344 26.109375 20.445312 25.964844 20.65625 C 25.777344 20.9375 25.390625 20.953125 25.375 20.953125 C 25.042969 20.953125 24.796875 20.855469 24.667969 20.65625 C 24.4375 20.304688 24.652344 19.800781 24.667969 19.773438 C 24.742188 19.632812 24.753906 19.519531 24.710938 19.433594 C 24.667969 19.320312 24.523438 19.28125 24.480469 19.265625 L 22.777344 19.265625 L 22.777344 20.980469 C 22.777344 20.996094 22.691406 21.289062 22.433594 21.402344 C 22.261719 21.472656 22.074219 21.460938 21.839844 21.359375 C 21.742188 21.320312 21.410156 21.21875 21.207031 21.347656 C 21.105469 21.417969 21.046875 21.570312 21.046875 21.796875 C 21.046875 21.796875 21.046875 22.035156 21.222656 22.148438 C 21.351562 22.234375 21.566406 22.21875 21.855469 22.09375 C 21.957031 22.035156 22.347656 21.839844 22.589844 21.980469 C 22.679688 22.023438 22.777344 22.132812 22.777344 22.359375 L 22.777344 27.5625 L 24.511719 27.5625 C 25.605469 27.5625 25.75 25.988281 25.75 25.988281 C 25.75 24.777344 26.527344 23.484375 26.527344 23.484375 C 28.015625 21.261719 28.246094 19.855469 28.261719 19.265625 L 25.953125 19.265625 C 25.910156 19.265625 25.835938 19.265625 25.808594 19.308594 Z M 25.808594 19.308594"/></g></svg>