<svg xmlns="http://www.w3.org/2000/svg" width="45" viewBox="0 0 45 45" height="45" version="1.0"><defs><clipPath id="a"><path d="M 15.9375 14 L 28.6875 14 L 28.6875 31.5 L 15.9375 31.5 Z M 15.9375 14"/></clipPath><clipPath id="b"><path d="M 16 13.5 L 19 13.5 L 19 16 L 16 16 Z M 16 13.5"/></clipPath><clipPath id="c"><path d="M 18 13.5 L 21 13.5 L 21 16 L 18 16 Z M 18 13.5"/></clipPath><clipPath id="d"><path d="M 20 13.5 L 23 13.5 L 23 16 L 20 16 Z M 20 13.5"/></clipPath><clipPath id="e"><path d="M 22 13.5 L 25 13.5 L 25 16 L 22 16 Z M 22 13.5"/></clipPath><clipPath id="f"><path d="M 23 13.5 L 26 13.5 L 26 16 L 23 16 Z M 23 13.5"/></clipPath><clipPath id="g"><path d="M 25 13.5 L 28 13.5 L 28 16 L 25 16 Z M 25 13.5"/></clipPath></defs><path fill="#FFF" d="M-4.5 -4.5H49.5V49.5H-4.5z"/><g clip-path="url(#a)"><path fill="#224C8D" d="M 28.679688 30.597656 C 28.679688 31.097656 28.289062 31.5 27.804688 31.5 L 16.828125 31.5 C 16.34375 31.5 15.953125 31.097656 15.953125 30.597656 L 15.953125 15.671875 C 15.953125 15.175781 16.34375 14.769531 16.828125 14.769531 L 27.804688 14.769531 C 28.289062 14.769531 28.679688 15.175781 28.679688 15.671875 L 28.679688 30.597656"/></g><path fill="#FFF" d="M 26.894531 16.835938 C 26.894531 16.898438 26.84375 16.945312 26.785156 16.945312 L 17.847656 16.945312 C 17.789062 16.945312 17.738281 16.898438 17.738281 16.835938 C 17.738281 16.773438 17.789062 16.722656 17.847656 16.722656 L 26.785156 16.722656 C 26.84375 16.722656 26.894531 16.773438 26.894531 16.835938"/><path fill="#FFF" d="M 26.894531 17.882812 C 26.894531 17.945312 26.84375 17.996094 26.785156 17.996094 L 17.847656 17.996094 C 17.789062 17.996094 17.738281 17.945312 17.738281 17.882812 C 17.738281 17.824219 17.789062 17.773438 17.847656 17.773438 L 26.785156 17.773438 C 26.84375 17.773438 26.894531 17.824219 26.894531 17.882812"/><path fill="#FFF" d="M 26.894531 18.933594 C 26.894531 18.996094 26.84375 19.046875 26.785156 19.046875 L 17.847656 19.046875 C 17.789062 19.046875 17.738281 18.996094 17.738281 18.933594 C 17.738281 18.871094 17.789062 18.824219 17.847656 18.824219 L 26.785156 18.824219 C 26.84375 18.824219 26.894531 18.871094 26.894531 18.933594"/><path fill="#FFF" d="M 26.894531 19.984375 C 26.894531 20.046875 26.84375 20.097656 26.785156 20.097656 L 17.847656 20.097656 C 17.789062 20.097656 17.738281 20.046875 17.738281 19.984375 C 17.738281 19.921875 17.789062 19.871094 17.847656 19.871094 L 26.785156 19.871094 C 26.84375 19.871094 26.894531 19.921875 26.894531 19.984375"/><path fill="#FFF" d="M 26.894531 21.035156 C 26.894531 21.097656 26.84375 21.148438 26.785156 21.148438 L 17.847656 21.148438 C 17.789062 21.148438 17.738281 21.097656 17.738281 21.035156 C 17.738281 20.972656 17.789062 20.921875 17.847656 20.921875 L 26.785156 20.921875 C 26.84375 20.921875 26.894531 20.972656 26.894531 21.035156"/><path fill="#FFF" d="M 26.894531 22.085938 C 26.894531 22.148438 26.84375 22.199219 26.785156 22.199219 L 17.847656 22.199219 C 17.789062 22.199219 17.738281 22.148438 17.738281 22.085938 C 17.738281 22.023438 17.789062 21.972656 17.847656 21.972656 L 26.785156 21.972656 C 26.84375 21.972656 26.894531 22.023438 26.894531 22.085938"/><path fill="#FFF" d="M 26.894531 23.136719 C 26.894531 23.195312 26.84375 23.25 26.785156 23.25 L 17.847656 23.25 C 17.789062 23.25 17.738281 23.195312 17.738281 23.136719 C 17.738281 23.074219 17.789062 23.023438 17.847656 23.023438 L 26.785156 23.023438 C 26.84375 23.023438 26.894531 23.074219 26.894531 23.136719"/><path fill="#FFF" d="M 26.894531 24.1875 C 26.894531 24.246094 26.84375 24.296875 26.785156 24.296875 L 17.847656 24.296875 C 17.789062 24.296875 17.738281 24.246094 17.738281 24.1875 C 17.738281 24.125 17.789062 24.074219 17.847656 24.074219 L 26.785156 24.074219 C 26.84375 24.074219 26.894531 24.125 26.894531 24.1875"/><path fill="#FFF" d="M 26.894531 25.234375 C 26.894531 25.296875 26.84375 25.347656 26.785156 25.347656 L 17.847656 25.347656 C 17.789062 25.347656 17.738281 25.296875 17.738281 25.234375 C 17.738281 25.171875 17.789062 25.125 17.847656 25.125 L 26.785156 25.125 C 26.84375 25.125 26.894531 25.171875 26.894531 25.234375"/><path fill="#FFF" d="M 26.894531 26.285156 C 26.894531 26.347656 26.84375 26.398438 26.785156 26.398438 L 17.847656 26.398438 C 17.789062 26.398438 17.738281 26.347656 17.738281 26.285156 C 17.738281 26.222656 17.789062 26.171875 17.847656 26.171875 L 26.785156 26.171875 C 26.84375 26.171875 26.894531 26.222656 26.894531 26.285156"/><path fill="#FFF" d="M 26.894531 27.335938 C 26.894531 27.398438 26.84375 27.449219 26.785156 27.449219 L 17.847656 27.449219 C 17.789062 27.449219 17.738281 27.398438 17.738281 27.335938 C 17.738281 27.273438 17.789062 27.222656 17.847656 27.222656 L 26.785156 27.222656 C 26.84375 27.222656 26.894531 27.273438 26.894531 27.335938"/><path fill="#FFF" d="M 26.894531 28.386719 C 26.894531 28.449219 26.84375 28.5 26.785156 28.5 L 17.847656 28.5 C 17.789062 28.5 17.738281 28.449219 17.738281 28.386719 C 17.738281 28.324219 17.789062 28.273438 17.847656 28.273438 L 26.785156 28.273438 C 26.84375 28.273438 26.894531 28.324219 26.894531 28.386719"/><path fill="#FFF" d="M 26.894531 29.4375 C 26.894531 29.5 26.84375 29.550781 26.785156 29.550781 L 17.847656 29.550781 C 17.789062 29.550781 17.738281 29.5 17.738281 29.4375 C 17.738281 29.375 17.789062 29.324219 17.847656 29.324219 L 26.785156 29.324219 C 26.84375 29.324219 26.894531 29.375 26.894531 29.4375"/><g clip-path="url(#b)"><path fill="#224C8D" d="M 17.910156 15.714844 C 17.824219 15.714844 17.753906 15.640625 17.753906 15.550781 C 17.753906 15.460938 17.824219 15.386719 17.910156 15.386719 C 18.300781 15.386719 18.617188 15.035156 18.617188 14.609375 C 18.617188 14.179688 18.300781 13.828125 17.910156 13.828125 C 17.523438 13.828125 17.207031 14.179688 17.207031 14.609375 C 17.207031 14.699219 17.132812 14.773438 17.046875 14.773438 C 16.957031 14.773438 16.886719 14.699219 16.886719 14.609375 C 16.886719 13.996094 17.34375 13.5 17.910156 13.5 C 18.476562 13.5 18.9375 13.996094 18.9375 14.609375 C 18.9375 15.21875 18.476562 15.714844 17.910156 15.714844"/></g><g clip-path="url(#c)"><path fill="#224C8D" d="M 19.644531 15.714844 C 19.554688 15.714844 19.484375 15.640625 19.484375 15.550781 C 19.484375 15.460938 19.554688 15.386719 19.644531 15.386719 C 20.035156 15.386719 20.351562 15.035156 20.351562 14.609375 C 20.351562 14.179688 20.035156 13.828125 19.644531 13.828125 C 19.253906 13.828125 18.9375 14.179688 18.9375 14.609375 C 18.9375 14.699219 18.867188 14.773438 18.777344 14.773438 C 18.691406 14.773438 18.617188 14.699219 18.617188 14.609375 C 18.617188 13.996094 19.078125 13.5 19.644531 13.5 C 20.210938 13.5 20.671875 13.996094 20.671875 14.609375 C 20.671875 15.21875 20.210938 15.714844 19.644531 15.714844"/></g><g clip-path="url(#d)"><path fill="#224C8D" d="M 21.375 15.714844 C 21.289062 15.714844 21.21875 15.640625 21.21875 15.550781 C 21.21875 15.460938 21.289062 15.386719 21.375 15.386719 C 21.765625 15.386719 22.082031 15.035156 22.082031 14.609375 C 22.082031 14.179688 21.765625 13.828125 21.375 13.828125 C 20.988281 13.828125 20.671875 14.179688 20.671875 14.609375 C 20.671875 14.699219 20.597656 14.773438 20.511719 14.773438 C 20.421875 14.773438 20.351562 14.699219 20.351562 14.609375 C 20.351562 13.996094 20.8125 13.5 21.375 13.5 C 21.941406 13.5 22.402344 13.996094 22.402344 14.609375 C 22.402344 15.21875 21.941406 15.714844 21.375 15.714844"/></g><g clip-path="url(#e)"><path fill="#224C8D" d="M 23.109375 15.714844 C 23.019531 15.714844 22.949219 15.640625 22.949219 15.550781 C 22.949219 15.460938 23.019531 15.386719 23.109375 15.386719 C 23.5 15.386719 23.816406 15.035156 23.816406 14.609375 C 23.816406 14.179688 23.5 13.828125 23.109375 13.828125 C 22.71875 13.828125 22.402344 14.179688 22.402344 14.609375 C 22.402344 14.699219 22.332031 14.773438 22.242188 14.773438 C 22.15625 14.773438 22.082031 14.699219 22.082031 14.609375 C 22.082031 13.996094 22.542969 13.5 23.109375 13.5 C 23.675781 13.5 24.136719 13.996094 24.136719 14.609375 C 24.136719 15.21875 23.675781 15.714844 23.109375 15.714844"/></g><g clip-path="url(#f)"><path fill="#224C8D" d="M 24.84375 15.714844 C 24.753906 15.714844 24.683594 15.640625 24.683594 15.550781 C 24.683594 15.460938 24.753906 15.386719 24.84375 15.386719 C 25.230469 15.386719 25.550781 15.035156 25.550781 14.609375 C 25.550781 14.179688 25.230469 13.828125 24.84375 13.828125 C 24.453125 13.828125 24.136719 14.179688 24.136719 14.609375 C 24.136719 14.699219 24.066406 14.773438 23.976562 14.773438 C 23.886719 14.773438 23.816406 14.699219 23.816406 14.609375 C 23.816406 13.996094 24.277344 13.5 24.84375 13.5 C 25.410156 13.5 25.867188 13.996094 25.867188 14.609375 C 25.867188 15.21875 25.410156 15.714844 24.84375 15.714844"/></g><g clip-path="url(#g)"><path fill="#224C8D" d="M 26.574219 15.714844 C 26.488281 15.714844 26.414062 15.640625 26.414062 15.550781 C 26.414062 15.460938 26.488281 15.386719 26.574219 15.386719 C 26.964844 15.386719 27.28125 15.035156 27.28125 14.609375 C 27.28125 14.179688 26.964844 13.828125 26.574219 13.828125 C 26.1875 13.828125 25.867188 14.179688 25.867188 14.609375 C 25.867188 14.699219 25.796875 14.773438 25.710938 14.773438 C 25.621094 14.773438 25.550781 14.699219 25.550781 14.609375 C 25.550781 13.996094 26.007812 13.5 26.574219 13.5 C 27.140625 13.5 27.601562 13.996094 27.601562 14.609375 C 27.601562 15.21875 27.140625 15.714844 26.574219 15.714844"/></g></svg>