<svg xmlns="http://www.w3.org/2000/svg" width="375" viewBox="0 0 375 375" height="375" version="1.0"><defs><clipPath id="a"><path d="M 121.6875 112.5 L 253.6875 112.5 L 253.6875 262.5 L 121.6875 262.5 Z M 121.6875 112.5"/></clipPath></defs><path fill="#FFF" d="M-37.5 -37.5H412.5V412.5H-37.5z"/><path fill="#FFF" d="M-37.5 -37.5H412.5V412.5H-37.5z"/><path fill="#FFF" d="M-37.5 -37.5H412.5V412.5H-37.5z"/><g clip-path="url(#a)"><path fill="#205072" d="M 220.535156 239.953125 L 220.535156 116.25 C 220.535156 114.179688 218.847656 112.5 216.773438 112.5 L 125.484375 112.5 C 123.410156 112.5 121.726562 114.179688 121.726562 116.25 L 121.726562 239.953125 C 121.726562 242.023438 123.410156 243.703125 125.484375 243.703125 L 216.773438 243.703125 C 218.847656 243.703125 220.535156 242.023438 220.535156 239.953125 Z M 213.011719 236.203125 L 129.246094 236.203125 L 129.246094 120 L 213.011719 120 Z M 136.703125 142.671875 C 136.703125 140.601562 138.386719 138.921875 140.464844 138.921875 L 201.792969 138.921875 C 203.871094 138.921875 205.554688 140.601562 205.554688 142.671875 C 205.554688 144.742188 203.871094 146.421875 201.792969 146.421875 L 140.464844 146.421875 C 138.386719 146.421875 136.703125 144.742188 136.703125 142.671875 Z M 136.703125 176.8125 C 136.703125 174.742188 138.386719 173.0625 140.464844 173.0625 L 201.792969 173.0625 C 203.871094 173.0625 205.554688 174.742188 205.554688 176.8125 C 205.554688 178.882812 203.871094 180.5625 201.792969 180.5625 L 140.464844 180.5625 C 138.386719 180.5625 136.703125 178.882812 136.703125 176.8125 Z M 136.703125 210.953125 C 136.703125 208.882812 138.386719 207.203125 140.464844 207.203125 L 201.792969 207.203125 C 203.871094 207.203125 205.554688 208.882812 205.554688 210.953125 C 205.554688 213.023438 203.871094 214.703125 201.792969 214.703125 L 140.464844 214.703125 C 138.386719 214.703125 136.703125 213.023438 136.703125 210.953125 Z M 253.636719 135.046875 L 253.636719 258.75 C 253.636719 260.820312 251.953125 262.5 249.878906 262.5 L 158.589844 262.5 C 156.511719 262.5 154.828125 260.820312 154.828125 258.75 L 154.828125 248.703125 L 162.351562 248.703125 L 162.351562 255 L 246.117188 255 L 246.117188 138.796875 L 225.546875 138.796875 L 225.546875 131.296875 L 249.878906 131.296875 C 251.953125 131.296875 253.636719 132.972656 253.636719 135.046875 Z M 253.636719 135.046875"/></g></svg>