<svg xmlns="http://www.w3.org/2000/svg" width="45" viewBox="0 0 45 45" height="45" version="1.0"><defs><clipPath id="a"><path d="M 12.566406 13.433594 L 31.316406 13.433594 L 31.316406 30.683594 L 12.566406 30.683594 Z M 12.566406 13.433594"/></clipPath></defs><path fill="#FFF" d="M-4.5 -4.5H49.5V49.5H-4.5z"/><path fill="#FFF" d="M-4.5 -4.5H49.5V49.5H-4.5z"/><g clip-path="url(#a)"><path fill="#205072" d="M 13.382812 13.433594 C 12.933594 13.433594 12.570312 13.804688 12.570312 14.257812 L 12.570312 26.167969 C 12.570312 26.621094 12.933594 26.988281 13.382812 26.988281 L 30.496094 26.988281 C 30.945312 26.988281 31.3125 26.621094 31.3125 26.167969 L 31.3125 14.257812 C 31.3125 13.804688 30.945312 13.433594 30.496094 13.433594 Z M 13.382812 14.257812 L 30.496094 14.257812 L 30.5 23.703125 L 13.382812 23.703125 Z M 23.144531 15.484375 C 22.964844 15.496094 22.84375 15.585938 22.78125 15.753906 L 20.335938 22.328125 C 20.292969 22.433594 20.292969 22.542969 20.339844 22.648438 C 20.386719 22.753906 20.460938 22.828125 20.570312 22.871094 C 20.679688 22.910156 20.785156 22.90625 20.886719 22.855469 C 20.992188 22.804688 21.0625 22.726562 21.101562 22.617188 L 23.542969 16.042969 C 23.570312 15.980469 23.578125 15.910156 23.570312 15.84375 C 23.5625 15.773438 23.535156 15.710938 23.496094 15.652344 C 23.453125 15.597656 23.402344 15.554688 23.339844 15.523438 C 23.277344 15.492188 23.210938 15.480469 23.144531 15.484375 Z M 24.792969 16.714844 C 24.621094 16.714844 24.496094 16.792969 24.421875 16.949219 C 24.347656 17.105469 24.363281 17.253906 24.476562 17.386719 L 25.902344 19.183594 L 24.476562 20.980469 C 24.40625 21.070312 24.375 21.171875 24.386719 21.285156 C 24.398438 21.398438 24.449219 21.488281 24.539062 21.558594 C 24.625 21.632812 24.726562 21.660156 24.839844 21.648438 C 24.949219 21.636719 25.042969 21.585938 25.113281 21.496094 L 26.742188 19.441406 C 26.878906 19.269531 26.878906 19.101562 26.742188 18.929688 L 25.113281 16.875 C 25.03125 16.769531 24.925781 16.71875 24.792969 16.714844 Z M 19.074219 16.71875 C 18.949219 16.722656 18.847656 16.773438 18.769531 16.875 L 17.140625 18.929688 C 17.003906 19.101562 17.003906 19.269531 17.140625 19.441406 L 18.769531 21.496094 C 18.839844 21.585938 18.933594 21.632812 19.042969 21.648438 C 19.15625 21.660156 19.253906 21.628906 19.34375 21.558594 C 19.429688 21.488281 19.480469 21.398438 19.492188 21.285156 C 19.507812 21.171875 19.476562 21.070312 19.40625 20.980469 L 17.980469 19.183594 L 19.40625 17.386719 C 19.519531 17.25 19.535156 17.101562 19.457031 16.945312 C 19.378906 16.785156 19.253906 16.710938 19.074219 16.71875 Z M 28.867188 24.933594 C 29.09375 24.933594 29.273438 25.121094 29.273438 25.347656 C 29.273438 25.574219 29.09375 25.757812 28.867188 25.757812 C 28.644531 25.757812 28.460938 25.574219 28.460938 25.347656 C 28.460938 25.121094 28.644531 24.933594 28.867188 24.933594 Z M 19.496094 27.808594 L 19.496094 28.632812 L 18.273438 28.632812 C 17.597656 28.632812 17.050781 29.183594 17.050781 29.863281 L 17.050781 30.273438 C 17.050781 30.5 17.234375 30.683594 17.460938 30.683594 L 26.421875 30.683594 C 26.648438 30.683594 26.832031 30.5 26.832031 30.273438 L 26.832031 29.863281 C 26.832031 29.183594 26.285156 28.632812 25.609375 28.632812 L 24.386719 28.632812 L 24.386719 27.808594 Z M 19.496094 27.808594"/></g></svg>