<svg xmlns="http://www.w3.org/2000/svg" width="45" viewBox="0 0 45 45" height="45" version="1.0"><defs><clipPath id="a"><path d="M 14.625 13.5 L 30.375 13.5 L 30.375 31.5 L 14.625 31.5 Z M 14.625 13.5"/></clipPath><clipPath id="b"><path d="M 24 15 L 30.375 15 L 30.375 31.5 L 24 31.5 Z M 24 15"/></clipPath></defs><path fill="#FFF" d="M-4.5 -4.5H49.5V49.5H-4.5z"/><g clip-path="url(#a)"><path fill="#205072" d="M 28.414062 17.03125 C 28.402344 16.9375 28.320312 16.894531 28.257812 16.894531 C 28.195312 16.894531 26.820312 16.792969 26.820312 16.792969 C 26.820312 16.792969 25.867188 15.835938 25.75 15.742188 C 25.644531 15.636719 25.445312 15.667969 25.363281 15.691406 C 25.351562 15.691406 25.152344 15.753906 24.828125 15.859375 C 24.503906 14.925781 23.949219 14.074219 22.953125 14.074219 L 22.855469 14.074219 C 22.582031 13.71875 22.226562 13.550781 21.933594 13.550781 C 19.628906 13.550781 18.515625 16.433594 18.171875 17.902344 C 17.269531 18.1875 16.628906 18.375 16.554688 18.40625 C 16.050781 18.5625 16.042969 18.574219 15.980469 19.046875 C 15.925781 19.402344 14.617188 29.539062 14.617188 29.539062 L 24.816406 31.449219 L 30.355469 30.253906 C 30.363281 30.234375 28.425781 17.125 28.414062 17.03125 Z M 24.261719 16.003906 C 24.011719 16.078125 23.707031 16.171875 23.402344 16.277344 L 23.402344 16.089844 C 23.402344 15.523438 23.328125 15.0625 23.191406 14.695312 C 23.714844 14.757812 24.042969 15.332031 24.261719 16.003906 Z M 22.550781 14.808594 C 22.6875 15.164062 22.785156 15.667969 22.785156 16.359375 L 22.785156 16.464844 C 22.21875 16.644531 21.621094 16.824219 21 17.023438 C 21.347656 15.699219 22.007812 15.050781 22.550781 14.808594 Z M 21.882812 14.160156 C 21.984375 14.160156 22.089844 14.203125 22.175781 14.265625 C 21.429688 14.609375 20.644531 15.480469 20.320312 17.242188 C 19.824219 17.398438 19.355469 17.535156 18.902344 17.683594 C 19.28125 16.339844 20.226562 14.160156 21.882812 14.160156 Z M 21.882812 14.160156"/></g><g clip-path="url(#b)"><path fill="#2F5E80" d="M 28.257812 16.875 C 28.191406 16.875 26.820312 16.769531 26.820312 16.769531 C 26.820312 16.769531 25.867188 15.816406 25.75 15.722656 C 25.707031 15.679688 25.65625 15.660156 25.613281 15.660156 L 24.847656 31.449219 L 30.386719 30.253906 C 30.386719 30.253906 28.445312 17.125 28.433594 17.03125 C 28.390625 16.9375 28.320312 16.894531 28.257812 16.875 Z M 28.257812 16.875"/></g><path fill="#FFF" d="M 22.855469 20.082031 L 22.195312 22.070312 C 22.195312 22.070312 21.597656 21.75 20.882812 21.75 C 19.824219 21.75 19.769531 22.421875 19.769531 22.585938 C 19.769531 23.496094 22.144531 23.84375 22.144531 25.980469 C 22.144531 27.660156 21.082031 28.742188 19.648438 28.742188 C 17.914062 28.742188 17.046875 27.671875 17.046875 27.671875 L 17.511719 26.144531 C 17.511719 26.144531 18.417969 26.929688 19.183594 26.929688 C 19.6875 26.929688 19.894531 26.535156 19.894531 26.25 C 19.894531 25.0625 17.957031 25.011719 17.957031 23.050781 C 17.957031 21.410156 19.132812 19.824219 21.515625 19.824219 C 22.398438 19.8125 22.855469 20.082031 22.855469 20.082031 Z M 22.855469 20.082031"/></svg>