<svg xmlns="http://www.w3.org/2000/svg" width="45" viewBox="0 0 45 45" height="45" version="1.0"><defs><clipPath id="a"><path d="M 13.5 15.050781 L 31.5 15.050781 L 31.5 30.050781 L 13.5 30.050781 Z M 13.5 15.050781"/></clipPath></defs><path fill="#FFF" d="M-4.5 -4.5H49.5V49.5H-4.5z"/><path fill="#FFF" d="M-4.5 -4.5H49.5V49.5H-4.5z"/><g clip-path="url(#a)"><path fill="#205072" d="M 22.5 15.050781 C 17.539062 15.050781 13.511719 19.109375 13.511719 24.105469 C 13.511719 26.335938 14.316406 28.382812 15.648438 29.960938 L 15.726562 30.050781 L 29.273438 30.050781 L 29.351562 29.960938 C 30.683594 28.382812 31.488281 26.335938 31.488281 24.105469 C 31.488281 19.109375 27.460938 15.050781 22.5 15.050781 Z M 22.5 15.570312 C 27.183594 15.570312 30.972656 19.386719 30.972656 24.105469 C 30.972656 26.171875 30.238281 28.058594 29.023438 29.535156 L 25.324219 29.535156 C 25.324219 29.394531 25.210938 29.277344 25.066406 29.277344 C 24.925781 29.277344 24.8125 29.394531 24.8125 29.535156 L 20.1875 29.535156 C 20.1875 29.394531 20.074219 29.277344 19.933594 29.277344 C 19.789062 29.277344 19.675781 29.394531 19.675781 29.535156 L 15.976562 29.535156 C 14.761719 28.058594 14.027344 26.171875 14.027344 24.105469 C 14.027344 19.386719 17.816406 15.570312 22.5 15.570312 Z M 22.5 16.34375 C 22.359375 16.34375 22.242188 16.460938 22.242188 16.605469 C 22.242188 16.746094 22.359375 16.863281 22.5 16.863281 C 22.640625 16.863281 22.757812 16.746094 22.757812 16.605469 C 22.757812 16.460938 22.640625 16.34375 22.5 16.34375 Z M 21.492188 16.414062 C 21.351562 16.429688 21.253906 16.5625 21.273438 16.703125 C 21.292969 16.84375 21.421875 16.945312 21.5625 16.925781 C 21.703125 16.90625 21.800781 16.777344 21.78125 16.632812 C 21.765625 16.492188 21.636719 16.394531 21.492188 16.414062 Z M 23.507812 16.414062 C 23.363281 16.394531 23.234375 16.492188 23.21875 16.632812 C 23.199219 16.777344 23.296875 16.90625 23.4375 16.925781 C 23.578125 16.945312 23.707031 16.84375 23.726562 16.703125 C 23.746094 16.5625 23.648438 16.429688 23.507812 16.414062 Z M 20.605469 16.605469 C 20.574219 16.597656 20.539062 16.601562 20.503906 16.609375 C 20.371094 16.648438 20.285156 16.789062 20.324219 16.925781 C 20.359375 17.066406 20.5 17.148438 20.640625 17.109375 C 20.777344 17.070312 20.859375 16.929688 20.820312 16.792969 C 20.792969 16.6875 20.707031 16.617188 20.605469 16.605469 Z M 24.394531 16.605469 C 24.292969 16.617188 24.207031 16.6875 24.179688 16.792969 C 24.140625 16.929688 24.222656 17.070312 24.359375 17.109375 C 24.496094 17.148438 24.640625 17.0625 24.675781 16.925781 C 24.714844 16.789062 24.628906 16.648438 24.496094 16.609375 C 24.460938 16.601562 24.425781 16.597656 24.394531 16.605469 Z M 19.652344 16.917969 C 19.617188 16.917969 19.585938 16.921875 19.550781 16.9375 C 19.421875 16.992188 19.359375 17.144531 19.414062 17.273438 C 19.46875 17.40625 19.617188 17.46875 19.75 17.414062 C 19.878906 17.359375 19.941406 17.207031 19.886719 17.074219 C 19.847656 16.976562 19.75 16.917969 19.652344 16.917969 Z M 25.347656 16.917969 C 25.25 16.917969 25.152344 16.976562 25.113281 17.074219 C 25.058594 17.207031 25.121094 17.359375 25.25 17.414062 C 25.382812 17.46875 25.53125 17.40625 25.585938 17.273438 C 25.640625 17.144531 25.578125 16.992188 25.449219 16.9375 C 25.414062 16.921875 25.382812 16.917969 25.347656 16.917969 Z M 18.746094 17.351562 C 18.710938 17.355469 18.679688 17.367188 18.648438 17.386719 C 18.527344 17.457031 18.484375 17.613281 18.554688 17.738281 C 18.625 17.863281 18.78125 17.90625 18.90625 17.832031 C 19.027344 17.761719 19.070312 17.601562 19 17.480469 C 18.945312 17.386719 18.84375 17.339844 18.746094 17.351562 Z M 26.253906 17.351562 C 26.15625 17.339844 26.054688 17.386719 26 17.480469 C 25.929688 17.601562 25.972656 17.761719 26.09375 17.832031 C 26.21875 17.90625 26.375 17.863281 26.445312 17.738281 C 26.515625 17.613281 26.472656 17.457031 26.351562 17.386719 C 26.320312 17.367188 26.289062 17.355469 26.253906 17.351562 Z M 22.5 17.378906 C 22.359375 17.378906 22.242188 17.496094 22.242188 17.640625 C 22.242188 17.78125 22.359375 17.898438 22.5 17.898438 C 22.640625 17.898438 22.757812 17.78125 22.757812 17.640625 C 22.757812 17.496094 22.640625 17.378906 22.5 17.378906 Z M 18 17.898438 C 17.933594 17.890625 17.867188 17.90625 17.808594 17.949219 C 17.695312 18.035156 17.675781 18.199219 17.761719 18.3125 C 17.847656 18.425781 18.011719 18.445312 18.121094 18.359375 C 18.234375 18.273438 18.257812 18.109375 18.171875 17.996094 C 18.125 17.941406 18.066406 17.90625 18 17.898438 Z M 27 17.898438 C 26.933594 17.90625 26.875 17.941406 26.828125 17.996094 C 26.742188 18.109375 26.765625 18.273438 26.878906 18.359375 C 26.988281 18.445312 27.152344 18.425781 27.238281 18.3125 C 27.324219 18.199219 27.304688 18.035156 27.191406 17.949219 C 27.132812 17.90625 27.066406 17.890625 27 17.898438 Z M 19.257812 18.25 C 19.226562 18.253906 19.191406 18.261719 19.160156 18.28125 C 19.039062 18.351562 18.996094 18.511719 19.066406 18.632812 C 19.136719 18.757812 19.296875 18.800781 19.417969 18.730469 C 19.539062 18.65625 19.582031 18.5 19.511719 18.375 C 19.460938 18.285156 19.359375 18.234375 19.257812 18.25 Z M 25.742188 18.25 C 25.640625 18.234375 25.539062 18.285156 25.488281 18.375 C 25.417969 18.5 25.460938 18.65625 25.582031 18.730469 C 25.703125 18.800781 25.863281 18.757812 25.933594 18.632812 C 26.003906 18.511719 25.960938 18.351562 25.839844 18.28125 C 25.808594 18.261719 25.773438 18.253906 25.742188 18.25 Z M 17.234375 18.542969 C 17.167969 18.542969 17.101562 18.566406 17.050781 18.617188 C 16.953125 18.71875 16.953125 18.882812 17.050781 18.984375 C 17.152344 19.085938 17.316406 19.085938 17.417969 18.984375 C 17.515625 18.882812 17.515625 18.71875 17.417969 18.617188 C 17.363281 18.566406 17.300781 18.542969 17.234375 18.542969 Z M 27.765625 18.542969 C 27.699219 18.542969 27.636719 18.566406 27.582031 18.617188 C 27.484375 18.71875 27.484375 18.882812 27.582031 18.984375 C 27.683594 19.085938 27.847656 19.085938 27.949219 18.984375 C 28.046875 18.882812 28.046875 18.71875 27.949219 18.617188 C 27.898438 18.566406 27.832031 18.542969 27.765625 18.542969 Z M 16.558594 19.28125 C 16.492188 19.289062 16.429688 19.324219 16.386719 19.378906 C 16.300781 19.496094 16.324219 19.65625 16.4375 19.742188 C 16.546875 19.832031 16.707031 19.808594 16.796875 19.695312 C 16.882812 19.582031 16.859375 19.421875 16.746094 19.332031 C 16.691406 19.289062 16.621094 19.273438 16.558594 19.28125 Z M 28.441406 19.28125 C 28.375 19.273438 28.308594 19.289062 28.253906 19.332031 C 28.140625 19.421875 28.117188 19.582031 28.203125 19.695312 C 28.292969 19.808594 28.453125 19.832031 28.5625 19.742188 C 28.675781 19.65625 28.699219 19.496094 28.613281 19.382812 C 28.570312 19.324219 28.507812 19.292969 28.441406 19.28125 Z M 26.496094 20.082031 C 26.496094 20.082031 24.0625 22.105469 22.84375 23.132812 C 22.734375 23.09375 22.621094 23.070312 22.5 23.070312 C 21.933594 23.070312 21.472656 23.535156 21.472656 24.105469 C 21.472656 24.671875 21.933594 25.140625 22.5 25.140625 C 23.066406 25.140625 23.527344 24.671875 23.527344 24.105469 C 23.527344 23.984375 23.503906 23.867188 23.464844 23.757812 C 24.484375 22.53125 26.496094 20.082031 26.496094 20.082031 Z M 16.082031 20.097656 C 15.984375 20.085938 15.882812 20.132812 15.828125 20.226562 C 15.757812 20.347656 15.800781 20.507812 15.921875 20.578125 C 16.042969 20.648438 16.203125 20.605469 16.273438 20.484375 C 16.34375 20.359375 16.300781 20.203125 16.179688 20.132812 C 16.148438 20.113281 16.113281 20.101562 16.082031 20.097656 Z M 28.917969 20.097656 C 28.886719 20.101562 28.851562 20.113281 28.820312 20.132812 C 28.699219 20.203125 28.65625 20.359375 28.726562 20.484375 C 28.796875 20.605469 28.957031 20.648438 29.078125 20.578125 C 29.199219 20.507812 29.242188 20.347656 29.171875 20.226562 C 29.117188 20.132812 29.015625 20.085938 28.917969 20.097656 Z M 16.972656 20.613281 C 16.871094 20.601562 16.769531 20.648438 16.71875 20.742188 C 16.648438 20.867188 16.6875 21.023438 16.8125 21.09375 C 16.933594 21.167969 17.089844 21.125 17.164062 21 C 17.234375 20.878906 17.191406 20.71875 17.066406 20.648438 C 17.039062 20.628906 17.003906 20.617188 16.972656 20.613281 Z M 28.027344 20.613281 C 27.996094 20.617188 27.960938 20.628906 27.933594 20.648438 C 27.808594 20.71875 27.765625 20.878906 27.835938 21 C 27.910156 21.125 28.066406 21.167969 28.1875 21.09375 C 28.3125 21.023438 28.351562 20.867188 28.28125 20.742188 C 28.230469 20.648438 28.128906 20.601562 28.027344 20.613281 Z M 15.617188 20.976562 C 15.519531 20.976562 15.421875 21.035156 15.382812 21.136719 C 15.328125 21.265625 15.390625 21.417969 15.519531 21.472656 C 15.652344 21.527344 15.800781 21.464844 15.855469 21.332031 C 15.910156 21.199219 15.847656 21.050781 15.71875 20.996094 C 15.683594 20.980469 15.652344 20.976562 15.617188 20.976562 Z M 29.382812 20.976562 C 29.347656 20.976562 29.3125 20.980469 29.28125 20.996094 C 29.152344 21.050781 29.089844 21.199219 29.144531 21.332031 C 29.195312 21.464844 29.347656 21.527344 29.480469 21.472656 C 29.609375 21.417969 29.671875 21.265625 29.617188 21.136719 C 29.578125 21.035156 29.480469 20.976562 29.382812 20.976562 Z M 15.269531 21.90625 C 15.171875 21.921875 15.085938 21.992188 15.058594 22.097656 C 15.023438 22.234375 15.101562 22.375 15.242188 22.414062 C 15.375 22.449219 15.515625 22.367188 15.554688 22.230469 C 15.589844 22.09375 15.507812 21.949219 15.371094 21.914062 C 15.339844 21.902344 15.304688 21.902344 15.269531 21.90625 Z M 29.730469 21.90625 C 29.695312 21.902344 29.660156 21.902344 29.628906 21.914062 C 29.488281 21.949219 29.410156 22.09375 29.445312 22.230469 C 29.484375 22.367188 29.625 22.449219 29.757812 22.414062 C 29.898438 22.375 29.976562 22.234375 29.941406 22.097656 C 29.914062 21.992188 29.828125 21.921875 29.730469 21.90625 Z M 15.148438 22.867188 C 15.007812 22.851562 14.878906 22.949219 14.863281 23.089844 C 14.84375 23.234375 14.941406 23.363281 15.082031 23.382812 C 15.222656 23.398438 15.351562 23.300781 15.371094 23.160156 C 15.390625 23.015625 15.289062 22.886719 15.148438 22.867188 Z M 29.851562 22.867188 C 29.710938 22.886719 29.609375 23.015625 29.628906 23.160156 C 29.648438 23.300781 29.777344 23.398438 29.917969 23.382812 C 30.058594 23.363281 30.15625 23.234375 30.136719 23.089844 C 30.121094 22.949219 29.992188 22.851562 29.851562 22.867188 Z M 22.5 23.585938 C 22.785156 23.585938 23.011719 23.816406 23.011719 24.105469 C 23.011719 24.394531 22.785156 24.621094 22.5 24.621094 C 22.214844 24.621094 21.988281 24.394531 21.988281 24.105469 C 21.988281 23.816406 22.214844 23.585938 22.5 23.585938 Z M 15.050781 23.84375 C 14.910156 23.84375 14.796875 23.960938 14.796875 24.105469 C 14.796875 24.246094 14.910156 24.363281 15.050781 24.363281 C 15.195312 24.363281 15.308594 24.246094 15.308594 24.105469 C 15.308594 23.960938 15.195312 23.84375 15.050781 23.84375 Z M 16.078125 23.84375 C 15.9375 23.84375 15.824219 23.960938 15.824219 24.105469 C 15.824219 24.246094 15.9375 24.363281 16.078125 24.363281 C 16.222656 24.363281 16.335938 24.246094 16.335938 24.105469 C 16.335938 23.960938 16.222656 23.84375 16.078125 23.84375 Z M 28.921875 23.84375 C 28.777344 23.84375 28.664062 23.960938 28.664062 24.105469 C 28.664062 24.246094 28.777344 24.363281 28.921875 24.363281 C 29.0625 24.363281 29.175781 24.246094 29.175781 24.105469 C 29.175781 23.960938 29.0625 23.84375 28.921875 23.84375 Z M 29.945312 23.84375 C 29.804688 23.84375 29.691406 23.960938 29.691406 24.105469 C 29.691406 24.246094 29.804688 24.363281 29.945312 24.363281 C 30.089844 24.363281 30.203125 24.246094 30.203125 24.105469 C 30.203125 23.960938 30.089844 23.84375 29.945312 23.84375 Z M 15.082031 24.828125 C 14.941406 24.847656 14.84375 24.976562 14.863281 25.117188 C 14.878906 25.257812 15.007812 25.359375 15.148438 25.339844 C 15.289062 25.320312 15.390625 25.191406 15.371094 25.050781 C 15.351562 24.90625 15.222656 24.808594 15.082031 24.828125 Z M 29.917969 24.828125 C 29.777344 24.808594 29.648438 24.90625 29.628906 25.050781 C 29.609375 25.191406 29.710938 25.320312 29.851562 25.339844 C 29.992188 25.359375 30.121094 25.257812 30.136719 25.117188 C 30.15625 24.976562 30.058594 24.847656 29.917969 24.828125 Z M 15.339844 25.789062 C 15.308594 25.785156 15.273438 25.785156 15.242188 25.796875 C 15.101562 25.832031 15.023438 25.972656 15.058594 26.113281 C 15.09375 26.25 15.234375 26.332031 15.371094 26.296875 C 15.511719 26.257812 15.589844 26.117188 15.554688 25.976562 C 15.527344 25.875 15.441406 25.804688 15.339844 25.789062 Z M 29.660156 25.789062 C 29.558594 25.804688 29.472656 25.875 29.445312 25.976562 C 29.410156 26.117188 29.492188 26.257812 29.628906 26.296875 C 29.765625 26.332031 29.90625 26.25 29.941406 26.113281 C 29.976562 25.972656 29.898438 25.832031 29.757812 25.796875 C 29.726562 25.785156 29.691406 25.785156 29.660156 25.789062 Z M 15.621094 26.714844 C 15.589844 26.714844 15.554688 26.722656 15.519531 26.734375 C 15.390625 26.789062 15.328125 26.941406 15.382812 27.074219 C 15.4375 27.207031 15.585938 27.269531 15.71875 27.210938 C 15.847656 27.15625 15.910156 27.007812 15.855469 26.875 C 15.816406 26.777344 15.722656 26.714844 15.621094 26.714844 Z M 29.378906 26.714844 C 29.277344 26.714844 29.183594 26.777344 29.144531 26.875 C 29.089844 27.007812 29.152344 27.15625 29.28125 27.210938 C 29.414062 27.269531 29.5625 27.207031 29.617188 27.074219 C 29.671875 26.941406 29.609375 26.789062 29.480469 26.734375 C 29.445312 26.722656 29.410156 26.714844 29.378906 26.714844 Z M 16.910156 27.082031 C 16.875 27.085938 16.84375 27.09375 16.8125 27.113281 C 16.6875 27.183594 16.648438 27.34375 16.71875 27.464844 C 16.789062 27.589844 16.945312 27.632812 17.066406 27.558594 C 17.191406 27.488281 17.234375 27.332031 17.164062 27.207031 C 17.109375 27.113281 17.007812 27.066406 16.910156 27.082031 Z M 28.09375 27.082031 C 27.992188 27.066406 27.890625 27.113281 27.835938 27.207031 C 27.765625 27.332031 27.808594 27.488281 27.933594 27.558594 C 28.054688 27.632812 28.210938 27.589844 28.28125 27.464844 C 28.351562 27.34375 28.3125 27.183594 28.1875 27.113281 C 28.15625 27.09375 28.125 27.085938 28.09375 27.082031 Z M 19.933594 27.207031 C 19.789062 27.207031 19.675781 27.324219 19.675781 27.464844 C 19.675781 27.609375 19.789062 27.726562 19.933594 27.726562 C 20.074219 27.726562 20.1875 27.609375 20.1875 27.464844 C 20.1875 27.324219 20.074219 27.207031 19.933594 27.207031 Z M 20.960938 27.207031 C 20.816406 27.207031 20.703125 27.324219 20.703125 27.464844 C 20.703125 27.609375 20.816406 27.726562 20.960938 27.726562 C 21.101562 27.726562 21.214844 27.609375 21.214844 27.464844 C 21.214844 27.324219 21.101562 27.207031 20.960938 27.207031 Z M 21.988281 27.207031 C 21.84375 27.207031 21.730469 27.324219 21.730469 27.464844 C 21.730469 27.609375 21.84375 27.726562 21.988281 27.726562 C 22.128906 27.726562 22.242188 27.609375 22.242188 27.464844 C 22.242188 27.324219 22.128906 27.207031 21.988281 27.207031 Z M 23.011719 27.207031 C 22.871094 27.207031 22.757812 27.324219 22.757812 27.464844 C 22.757812 27.609375 22.871094 27.726562 23.011719 27.726562 C 23.15625 27.726562 23.269531 27.609375 23.269531 27.464844 C 23.269531 27.324219 23.15625 27.207031 23.011719 27.207031 Z M 24.039062 27.207031 C 23.898438 27.207031 23.785156 27.324219 23.785156 27.464844 C 23.785156 27.609375 23.898438 27.726562 24.039062 27.726562 C 24.183594 27.726562 24.296875 27.609375 24.296875 27.464844 C 24.296875 27.324219 24.183594 27.207031 24.039062 27.207031 Z M 25.066406 27.207031 C 24.925781 27.207031 24.8125 27.324219 24.8125 27.464844 C 24.8125 27.609375 24.925781 27.726562 25.066406 27.726562 C 25.210938 27.726562 25.324219 27.609375 25.324219 27.464844 C 25.324219 27.324219 25.210938 27.207031 25.066406 27.207031 Z M 16.019531 27.597656 C 15.984375 27.601562 15.953125 27.613281 15.921875 27.632812 C 15.800781 27.703125 15.757812 27.859375 15.828125 27.984375 C 15.898438 28.105469 16.054688 28.148438 16.179688 28.078125 C 16.300781 28.007812 16.34375 27.847656 16.273438 27.726562 C 16.21875 27.632812 16.117188 27.585938 16.019531 27.597656 Z M 28.980469 27.597656 C 28.882812 27.585938 28.78125 27.632812 28.726562 27.726562 C 28.65625 27.847656 28.699219 28.007812 28.820312 28.078125 C 28.945312 28.148438 29.101562 28.105469 29.171875 27.984375 C 29.242188 27.859375 29.199219 27.703125 29.078125 27.632812 C 29.046875 27.613281 29.015625 27.601562 28.980469 27.597656 Z M 19.933594 28.242188 C 19.789062 28.242188 19.675781 28.359375 19.675781 28.5 C 19.675781 28.644531 19.789062 28.757812 19.933594 28.757812 C 20.074219 28.757812 20.1875 28.644531 20.1875 28.5 C 20.1875 28.359375 20.074219 28.242188 19.933594 28.242188 Z M 25.066406 28.242188 C 24.925781 28.242188 24.8125 28.359375 24.8125 28.5 C 24.8125 28.644531 24.925781 28.757812 25.066406 28.757812 C 25.210938 28.757812 25.324219 28.644531 25.324219 28.5 C 25.324219 28.359375 25.210938 28.242188 25.066406 28.242188 Z M 25.066406 28.242188"/></g></svg>