<svg xmlns="http://www.w3.org/2000/svg" width="45" viewBox="0 0 45 45" height="45" version="1.0"><defs><clipPath id="a"><path d="M 16 13.5 L 23 13.5 L 23 27 L 16 27 Z M 16 13.5"/></clipPath><clipPath id="b"><path d="M 14.761719 13.5 L 29 13.5 L 29 30 L 14.761719 30 Z M 14.761719 13.5"/></clipPath><clipPath id="c"><path d="M 14.761719 15 L 27 15 L 27 31.5 L 14.761719 31.5 Z M 14.761719 15"/></clipPath><clipPath id="d"><path d="M 22 13.5 L 30 13.5 L 30 27 L 22 27 Z M 22 13.5"/></clipPath><clipPath id="e"><path d="M 22 15 L 30.511719 15 L 30.511719 30 L 22 30 Z M 22 15"/></clipPath></defs><path fill="#FFF" d="M-4.5 -4.5H49.5V49.5H-4.5z"/><g clip-path="url(#a)"><path fill="#205072" d="M 22.628906 15.835938 L 16.53125 13.722656 L 16.53125 26.753906 L 22.628906 24.816406 L 22.628906 15.835938"/></g><g clip-path="url(#b)"><path fill="#FFF" d="M 22.484375 15.832031 L 28.8125 13.71875 L 28.8125 26.75 L 22.484375 24.8125 L 22.484375 15.832031 M 14.949219 29.039062 L 22.480469 26.570312 L 22.480469 15.828125 L 14.949219 18.292969 L 14.949219 29.039062"/></g><path fill="#205072" d="M 25.914062 29.199219 L 26.980469 30.925781 L 27.542969 29.320312 L 25.914062 29.199219 M 17.511719 19.53125 C 17.472656 19.492188 17.566406 19.847656 17.691406 19.972656 C 17.921875 20.199219 18.097656 20.226562 18.191406 20.230469 C 18.402344 20.242188 18.660156 20.179688 18.8125 20.117188 C 18.960938 20.054688 19.21875 19.925781 19.320312 19.734375 C 19.339844 19.695312 19.398438 19.625 19.359375 19.453125 C 19.332031 19.324219 19.246094 19.28125 19.148438 19.285156 C 19.046875 19.292969 18.734375 19.375 18.582031 19.421875 L 17.988281 19.585938 C 17.855469 19.613281 17.5625 19.574219 17.511719 19.527344 M 21.3125 23.761719 L 19.851562 23.160156 L 19.195312 22.882812 L 19.988281 21.570312 L 20.558594 20.421875 C 20.570312 20.367188 20.585938 20.148438 20.574219 20.097656 C 20.5625 20.042969 20.382812 20.144531 20.140625 20.226562 C 19.894531 20.308594 19.429688 20.605469 19.253906 20.640625 C 19.078125 20.679688 18.5 20.890625 18.207031 20.988281 L 17.125 21.3125 C 16.894531 21.371094 16.695312 21.375 16.566406 21.414062 C 16.566406 21.414062 16.585938 21.589844 16.617188 21.644531 C 16.652344 21.695312 16.773438 21.828125 16.914062 21.863281 C 17.054688 21.898438 17.289062 21.882812 17.394531 21.859375 C 17.5 21.835938 17.6875 21.746094 17.710938 21.710938 C 17.734375 21.671875 17.699219 21.550781 17.738281 21.511719 C 17.78125 21.476562 18.34375 21.347656 18.554688 21.285156 L 19.683594 20.957031 C 19.648438 21.070312 19 22.339844 18.789062 22.71875 C 18.578125 23.09375 17.359375 24.757812 17.101562 25.050781 L 16.261719 25.976562 C 16.300781 25.988281 16.597656 25.960938 16.652344 25.929688 C 16.988281 25.726562 17.546875 25.042969 17.726562 24.835938 C 18.261719 24.21875 18.730469 23.574219 19.105469 23.015625 C 19.175781 23.046875 19.765625 23.515625 19.917969 23.621094 C 20.070312 23.722656 20.675781 24.054688 20.804688 24.109375 C 20.9375 24.164062 21.441406 24.394531 21.460938 24.316406 C 21.484375 24.238281 21.371094 23.785156 21.3125 23.761719"/><g clip-path="url(#c)"><path fill="#205072" d="M 18.476562 30.042969 C 18.589844 30.109375 18.707031 30.171875 18.828125 30.226562 L 19.625 30.574219 C 19.984375 30.707031 20.351562 30.816406 20.722656 30.902344 L 21.363281 31.019531 C 21.382812 31.019531 21.964844 31.089844 22.082031 31.089844 L 22.671875 31.089844 L 23.34375 31.023438 L 23.925781 30.921875 L 24.363281 30.808594 L 24.808594 30.667969 L 25.117188 30.550781 L 25.40625 30.429688 L 25.789062 30.246094 L 26.125 30.066406 C 26.207031 30.019531 26.40625 29.871094 26.507812 29.871094 C 26.625 29.871094 26.707031 29.976562 26.707031 30.066406 C 26.707031 30.25 26.449219 30.308594 26.332031 30.390625 C 26.207031 30.476562 26.058594 30.539062 25.925781 30.609375 C 25.667969 30.746094 25.398438 30.859375 25.144531 30.957031 C 24.808594 31.078125 24.445312 31.195312 24.117188 31.273438 L 23.742188 31.347656 C 23.679688 31.363281 23 31.464844 22.808594 31.464844 L 21.945312 31.464844 L 21.246094 31.386719 L 20.625 31.273438 L 20.148438 31.148438 C 19.886719 31.078125 19.636719 30.988281 19.382812 30.894531 C 18.933594 30.726562 18.464844 30.507812 18.019531 30.21875 C 17.941406 30.167969 17.933594 30.117188 17.933594 30.058594 C 17.929688 29.933594 17.992188 29.871094 18.121094 29.871094 C 18.226562 29.871094 18.4375 30.019531 18.476562 30.039062 M 22.679688 15.804688 L 22.679688 26.589844 C 22.671875 26.628906 22.65625 26.660156 22.632812 26.6875 C 22.617188 26.707031 22.59375 26.734375 22.574219 26.738281 C 22.410156 26.804688 15.050781 29.230469 14.957031 29.230469 C 14.875 29.230469 14.804688 29.179688 14.765625 29.09375 C 14.765625 29.089844 14.757812 29.082031 14.757812 29.070312 L 14.757812 18.28125 C 14.773438 18.25 14.777344 18.203125 14.804688 18.179688 C 14.855469 18.105469 14.949219 18.09375 15.003906 18.074219 C 15.117188 18.035156 22.363281 15.648438 22.46875 15.648438 C 22.535156 15.648438 22.679688 15.695312 22.679688 15.808594 Z M 22.277344 26.429688 L 15.15625 28.757812 L 15.15625 18.4375 L 22.277344 16.105469 L 22.277344 26.429688" fill-rule="evenodd"/></g><g clip-path="url(#d)"><path fill="#205072" d="M 29.011719 13.738281 L 29.011719 26.722656 C 29.003906 26.871094 28.898438 26.933594 28.800781 26.933594 C 28.71875 26.933594 28.101562 26.730469 27.996094 26.699219 L 25.527344 25.945312 L 24.976562 25.773438 L 24.496094 25.625 L 22.382812 24.96875 C 22.355469 24.964844 22.292969 24.875 22.292969 24.855469 L 22.292969 15.785156 C 22.304688 15.753906 22.316406 15.714844 22.351562 15.6875 C 22.402344 15.628906 24.644531 14.898438 25.527344 14.609375 C 25.761719 14.527344 28.710938 13.53125 28.800781 13.53125 C 28.945312 13.527344 29.015625 13.59375 29.011719 13.734375 Z M 28.613281 26.480469 L 22.683594 24.667969 L 22.683594 15.96875 L 28.613281 13.992188 L 28.613281 26.480469" fill-rule="evenodd"/></g><g clip-path="url(#e)"><path fill="#205072" d="M 30.515625 29.199219 L 22.597656 26.71875 L 22.628906 15.925781 L 30.515625 18.394531 L 30.515625 29.199219"/></g><path fill="#FFF" d="M 26.054688 19.007812 L 27.078125 19.3125 L 28.9375 25.890625 L 27.886719 25.582031 L 27.507812 24.230469 L 25.34375 23.585938 L 24.878906 24.6875 L 23.828125 24.375 Z M 26.523438 20.75 L 25.746094 22.59375 L 27.175781 23.019531 L 26.523438 20.75" fill-rule="evenodd"/></svg>