<svg xmlns="http://www.w3.org/2000/svg" width="45" viewBox="0 0 45 45" height="45" version="1.0"><defs><clipPath id="a"><path d="M 18 13.5 L 26 13.5 L 26 23 L 18 23 Z M 18 13.5"/></clipPath><clipPath id="b"><path d="M 15.660156 22 L 29.160156 22 L 29.160156 31.5 L 15.660156 31.5 Z M 15.660156 22"/></clipPath></defs><path fill="#FFF" d="M-4.5 -4.5H49.5V49.5H-4.5z"/><path fill="#FFF" d="M-4.5 -4.5H49.5V49.5H-4.5z"/><path fill="#FFF" d="M-4.5 -4.5H49.5V49.5H-4.5z"/><g clip-path="url(#a)"><path fill="#205072" d="M 22.410156 22.304688 C 24.382812 22.304688 25.984375 20.335938 25.984375 17.90625 C 25.984375 15.476562 25.457031 13.507812 22.410156 13.507812 C 19.363281 13.507812 18.835938 15.476562 18.835938 17.90625 C 18.835938 20.335938 20.4375 22.304688 22.410156 22.304688 Z M 22.410156 22.304688"/></g><g clip-path="url(#b)"><path fill="#205072" d="M 29.152344 28.839844 C 29.085938 24.609375 28.539062 23.402344 24.367188 22.640625 C 24.367188 22.640625 23.78125 23.398438 22.410156 23.398438 C 21.039062 23.398438 20.453125 22.640625 20.453125 22.640625 C 16.324219 23.394531 15.746094 24.582031 15.671875 28.703125 C 15.664062 29.039062 15.660156 29.054688 15.660156 29.015625 C 15.660156 29.089844 15.660156 29.226562 15.660156 29.460938 C 15.660156 29.460938 16.65625 31.492188 22.410156 31.492188 C 28.164062 31.492188 29.160156 29.460938 29.160156 29.460938 C 29.160156 29.308594 29.160156 29.203125 29.160156 29.132812 C 29.160156 29.15625 29.15625 29.109375 29.152344 28.839844 Z M 29.152344 28.839844"/></g></svg>