<svg xmlns="http://www.w3.org/2000/svg" width="45" viewBox="0 0 45 45" height="45" version="1.0"><defs><clipPath id="a"><path d="M 13.5 14.480469 L 31.5 14.480469 L 31.5 30.230469 L 13.5 30.230469 Z M 13.5 14.480469"/></clipPath></defs><path fill="#FFF" d="M-4.5 -4.5H49.5V49.5H-4.5z"/><g clip-path="url(#a)"><path fill="#205072" d="M 19.289062 14.542969 C 17.699219 14.578125 16.195312 15.300781 15.164062 16.523438 C 14.089844 17.796875 13.628906 19.460938 13.902344 21.09375 C 14.054688 22.007812 14.328125 22.535156 14.675781 23.199219 C 14.753906 23.351562 14.839844 23.515625 14.929688 23.691406 C 15.046875 23.929688 15.09375 24.203125 15.0625 24.480469 L 14.488281 29.324219 C 14.457031 29.554688 14.535156 29.785156 14.691406 29.957031 C 14.847656 30.128906 15.070312 30.230469 15.304688 30.230469 L 21.359375 30.230469 C 21.589844 30.230469 21.808594 30.136719 21.964844 29.96875 C 22.121094 29.804688 22.199219 29.582031 22.183594 29.359375 L 22.023438 27.199219 L 23.488281 27.386719 C 23.816406 27.421875 24.152344 27.320312 24.402344 27.101562 C 24.648438 26.878906 24.792969 26.566406 24.792969 26.238281 L 24.792969 23.480469 L 25.664062 23.167969 C 25.796875 23.140625 25.917969 23.0625 25.992188 22.949219 C 26.074219 22.824219 26.089844 22.667969 26.039062 22.511719 L 24.910156 19.742188 C 24.890625 19.691406 24.882812 19.628906 24.878906 19.566406 C 24.804688 16.535156 22.511719 14.464844 19.289062 14.542969 Z M 19.304688 15.082031 C 22.195312 15.015625 24.261719 16.863281 24.328125 19.578125 C 24.332031 19.695312 24.351562 19.808594 24.390625 19.929688 L 25.503906 22.648438 L 24.605469 22.972656 C 24.390625 23.050781 24.246094 23.253906 24.246094 23.480469 L 24.246094 26.238281 C 24.246094 26.414062 24.167969 26.578125 24.035156 26.695312 C 23.902344 26.816406 23.726562 26.871094 23.550781 26.851562 L 22.773438 26.75 C 22.757812 26.746094 22.742188 26.738281 22.726562 26.738281 L 20.933594 26.507812 C 20.785156 26.488281 20.644531 26.59375 20.625 26.742188 C 20.605469 26.890625 20.710938 27.023438 20.863281 27.046875 L 21.464844 27.121094 L 21.636719 29.398438 C 21.640625 29.472656 21.613281 29.546875 21.5625 29.601562 C 21.511719 29.65625 21.4375 29.6875 21.359375 29.6875 L 15.304688 29.6875 C 15.226562 29.6875 15.152344 29.65625 15.101562 29.597656 C 15.046875 29.539062 15.023438 29.464844 15.035156 29.386719 L 15.609375 24.539062 C 15.648438 24.160156 15.585938 23.78125 15.421875 23.453125 C 15.332031 23.273438 15.246094 23.109375 15.164062 22.953125 C 14.828125 22.308594 14.585938 21.839844 14.445312 21.007812 C 14.199219 19.527344 14.613281 18.019531 15.585938 16.867188 C 16.53125 15.75 17.851562 15.117188 19.304688 15.082031 Z M 19.558594 15.996094 C 19.40625 15.996094 19.28125 16.117188 19.28125 16.265625 L 19.28125 16.886719 C 19.28125 17.035156 19.40625 17.15625 19.558594 17.15625 C 19.710938 17.15625 19.832031 17.035156 19.832031 16.886719 L 19.832031 16.265625 C 19.832031 16.117188 19.710938 15.996094 19.558594 15.996094 Z M 18.222656 16.226562 C 18.1875 16.222656 18.148438 16.222656 18.113281 16.226562 C 17.964844 16.257812 17.871094 16.402344 17.898438 16.546875 L 18.03125 17.148438 C 18.058594 17.277344 18.171875 17.363281 18.300781 17.363281 C 18.316406 17.363281 18.335938 17.359375 18.355469 17.355469 C 18.503906 17.324219 18.597656 17.183594 18.570312 17.035156 L 18.441406 16.4375 C 18.414062 16.328125 18.328125 16.25 18.222656 16.226562 Z M 20.894531 16.226562 C 20.789062 16.25 20.699219 16.328125 20.675781 16.4375 L 20.546875 17.035156 C 20.515625 17.183594 20.609375 17.324219 20.757812 17.355469 C 20.777344 17.359375 20.796875 17.363281 20.816406 17.363281 C 20.945312 17.363281 21.058594 17.273438 21.085938 17.148438 L 21.214844 16.546875 C 21.246094 16.402344 21.152344 16.257812 21.003906 16.226562 C 20.964844 16.222656 20.929688 16.222656 20.894531 16.226562 Z M 16.871094 16.890625 C 16.832031 16.890625 16.796875 16.898438 16.761719 16.914062 C 16.625 16.976562 16.5625 17.136719 16.625 17.269531 L 16.875 17.808594 C 16.921875 17.910156 17.023438 17.96875 17.125 17.96875 C 17.164062 17.96875 17.203125 17.960938 17.242188 17.941406 C 17.378906 17.878906 17.441406 17.71875 17.375 17.585938 L 17.128906 17.046875 C 17.078125 16.945312 16.976562 16.886719 16.871094 16.890625 Z M 22.246094 16.890625 C 22.140625 16.886719 22.035156 16.945312 21.988281 17.046875 L 21.738281 17.585938 C 21.675781 17.71875 21.738281 17.878906 21.875 17.941406 C 21.914062 17.960938 21.949219 17.96875 21.988281 17.96875 C 22.09375 17.96875 22.195312 17.910156 22.238281 17.808594 L 22.488281 17.269531 C 22.550781 17.136719 22.492188 16.976562 22.351562 16.914062 C 22.316406 16.898438 22.28125 16.890625 22.246094 16.890625 Z M 27.808594 21.855469 C 27.65625 21.855469 27.53125 21.976562 27.53125 22.125 L 27.53125 28.066406 C 27.53125 28.214844 27.65625 28.335938 27.808594 28.335938 C 27.960938 28.335938 28.082031 28.214844 28.082031 28.066406 L 28.082031 22.125 C 28.082031 21.976562 27.960938 21.855469 27.808594 21.855469 Z M 30.007812 22.664062 C 29.855469 22.664062 29.730469 22.785156 29.730469 22.933594 L 29.730469 27.257812 C 29.730469 27.40625 29.855469 27.527344 30.007812 27.527344 C 30.160156 27.527344 30.28125 27.40625 30.28125 27.257812 L 30.28125 22.933594 C 30.28125 22.785156 30.160156 22.664062 30.007812 22.664062 Z M 28.90625 23.203125 C 28.753906 23.203125 28.632812 23.324219 28.632812 23.476562 L 28.632812 26.714844 C 28.632812 26.867188 28.753906 26.988281 28.90625 26.988281 C 29.058594 26.988281 29.183594 26.867188 29.183594 26.714844 L 29.183594 23.476562 C 29.183594 23.324219 29.058594 23.203125 28.90625 23.203125 Z M 26.707031 23.746094 C 26.554688 23.746094 26.433594 23.867188 26.433594 24.015625 L 26.433594 26.175781 C 26.433594 26.324219 26.554688 26.445312 26.707031 26.445312 C 26.859375 26.445312 26.980469 26.324219 26.980469 26.175781 L 26.980469 24.015625 C 26.980469 23.867188 26.859375 23.746094 26.707031 23.746094 Z M 25.605469 24.285156 C 25.453125 24.285156 25.332031 24.40625 25.332031 24.554688 L 25.332031 25.636719 C 25.332031 25.785156 25.453125 25.90625 25.605469 25.90625 C 25.761719 25.90625 25.882812 25.785156 25.882812 25.636719 L 25.882812 24.554688 C 25.882812 24.40625 25.761719 24.285156 25.605469 24.285156 Z M 31.105469 24.285156 C 30.953125 24.285156 30.832031 24.40625 30.832031 24.554688 L 30.832031 25.636719 C 30.832031 25.785156 30.953125 25.90625 31.105469 25.90625 C 31.257812 25.90625 31.382812 25.785156 31.382812 25.636719 L 31.382812 24.554688 C 31.382812 24.40625 31.257812 24.285156 31.105469 24.285156 Z M 31.105469 24.285156"/></g></svg>